<svg version="1" xmlns="http://www.w3.org/2000/svg" width="346.667" height="346.667" viewBox="0 0 260.000000 260.000000"><path d="M95.5 3c-8.6 1.4-14.7 3.6-26.7 9.7C55.7 19.4 49 26.1 41.5 40.1 35.9 50.6 34.6 55.2 33 69c-1.7 14.8 1.9 40.6 11.5 84 .8 3.6 1.5 8.8 1.5 11.7 0 6.9-3.2 23.3-7.1 35.7-4 13-6.1 24.1-5.3 28.4.8 4.2 7.3 11.1 13.2 14.1 2.1 1.1 11.8 3.8 21.4 6 27.3 6.3 55.7 7.5 67 2.8 5.9-2.5 6.9-4.9 8.2-21.4 1.7-20.6 2.7-22 16.3-23.4 11.1-1.2 12.4-1.8 16.1-7.1 5.7-8.3 8.2-14.5 10.6-26 3.1-14.9 7.4-21.9 16.8-27 6.8-3.8 9.8-8 9.8-13.9 0-3-1.6-6.2-8-15.9-4.4-6.7-9.3-14.5-10.9-17.3-2.8-5-7.4-21.2-11.1-38.7-4.3-20.5-12.1-31.5-31.2-44.1-10.6-7-17.1-10.1-25.5-12.3-7.5-2-23.1-2.7-30.8-1.6zm30.9 10.5c14.7 3.8 33 16.6 40.5 28.3 3.2 5 9.9 24.3 12.7 36.6 4.2 18.8 6.5 23.3 22.9 46 1.9 2.6 3.5 5.6 3.5 6.6 0 2.9-3.4 6.3-10.2 10.3-10.6 6.2-13.3 10-15.8 22l-1.2 5.9-3.6-.7c-2.1-.4-7.2-2-11.4-3.6-9.4-3.6-14.3-4.6-15.3-2.9-.4.6-.1 1.8.7 2.6 2.3 2.3 19.5 9.4 24.4 10.1 3.6.5 4.4 1 4.4 2.6 0 5.5-9.8 18.9-15.7 21.3-1.8.8-6.7 1.4-11.2 1.4h-8l-2.9 5.2c-2.8 4.9-3.1 6.5-4.2 20.8-1.2 16.6-2.1 19.3-6.8 21.2-1.8.7-9.4.8-22.3.4-18.7-.5-20.4-.8-35.5-4.6-22.4-5.7-25-6.7-28-10.3-2.4-2.8-2.6-3.7-2.1-9.2.3-3.3 2.8-13 5.6-21.5s5.6-18.2 6.1-21.5c1.6-9.9 1.2-22.2-1-30-1.1-3.8-2.7-11.8-3.5-17.7-.8-5.9-2.4-14-3.5-18-4-14.9-5.2-39.1-2.4-50.2 3.7-14.5 14.6-30.3 26.9-39.1 7.6-5.4 17-10.1 23.8-12 7.1-1.9 25.8-1.9 33.1 0z"/><path d="M97.5 24.4c-1.6.7-4.8 2.5-6.9 4-2.9 1.9-5.1 2.6-8.7 2.6-9.4 0-13.3 2.9-18.9 14.1-3.3 6.4-4.4 7.7-7.2 8.5-2.4.7-4.3 2.5-7.2 6.9-6.5 9.8-6.3 17.4.9 27 2.5 3.3 4.8 7.1 5.2 8.5 1.5 6.5 11.6 12.2 21.8 12.3 5.7 0 8.6-.9 13.6-4.5 1.3-.9 2.8-.7 7 1.1 9.9 4.3 20.8 1.2 24.4-7l1.9-4.1 4.6.7c12.8 1.9 11.9 2 15.8-1.8 2.1-2 5.7-4.3 8.2-5.2 2.4-.9 5.5-2.5 6.8-3.7 3.1-3 5.5-11.9 4.9-18.1-.4-4.4-1-5.5-5-9.3-2.6-2.4-4.9-5.5-5.3-7.1-3-13.6-9.4-19.2-22-19.3-4.6 0-6.8-.5-8.7-2-1.4-1.1-4.2-2.7-6.1-3.5-4.3-1.8-15-1.9-19.1-.1zm17.8 6.2c2.6.9 4.7 2.2 4.7 2.9 0 .7-2 5.2-4.4 10.1-3.3 6.7-4.2 9.3-3.5 10.6 1.4 2.7 3.8 2.2 5.7-1.2 1.9-3.4 3.2-3.6 9.2-1.5 2.4.8 4.5 1.3 4.7 1.1 1.2-1.2-1.2-4.6-4.2-6.1-2.8-1.3-3.5-2.2-3.5-4.5 0-8.7 17.2-7.5 21.5 1.6.8 1.7 1.5 4.6 1.5 6.3 0 2.6-.8 3.5-5.7 6.7-3.2 2-6.9 4.6-8.3 5.9-1.6 1.5-5.8 3-12 4.5-5.2 1.2-10.3 2.6-11.3 3.2-3.2 1.7-9.7 8-9.7 9.4 0 2.7 2.3 2.5 5.3-.4 4-3.7 6.1-4.8 11.4-5.7l4.1-.6-.1 3.3c-.3 4.8 2.7 4.8 8.5 0 2.5-2.1 7-5.4 10-7.2 2.9-1.8 7.2-4.5 9.6-6.1 2.3-1.6 4.5-2.9 4.7-2.9 1.3 0 3.5 6.5 3.5 10.3 0 4-.5 4.9-4.4 8.5-7.6 7-11.8 8.6-22.1 8.4-9.8-.1-10.3.1-14.8 6.1-6.2 8.2-18 8-25.1-.3-3-3.7-3.1-4-1.1-10.8 1.1-3.5 3-6.7 6-9.8 4.7-4.8 4.9-5.2 3.9-7.8-1-2.6-2.9-1.9-7.2 2.8-4.6 5-6.5 8.4-8.1 14.3-.7 2.4-1.6 4.3-2.2 4.3-1.4 0-4.8-6-5.5-9.8-.8-3.9-2.6-3.7-3.8.5l-.9 3-5.8-2.1c-4.4-1.5-6.1-1.8-7-.9-3.1 3.1 3.6 8.8 13.9 11.8C77.7 90 83 94.6 83 97.4c0 3.4-10.8 4.8-16 2.1-3.5-1.8-5-4.3-5-8.5 0-2.5-.7-3.5-3.5-5.2-4.2-2.4-6-5.6-7-12C50.2 64.9 54 59 61.1 59c3.4 0 3.7-.3 4.3-3.4 1.1-5.9 6.5-15.5 9.6-17.1 2.8-1.5 11-2.1 11-.9 0 .3-.7 3-1.6 5.9-1.6 5.8-1.6 14.6.2 15.2.9.3 3.2-5.8 4.8-12.9.4-1.5 2.1-4.3 3.9-6.2 1.7-1.8 4-4.6 5-6.1 3.3-4.7 9-5.7 17-2.9zM153.2 101.7c-2 .8-4.2 5.9-4.2 9.8 0 5 4.4 9.5 9.4 9.5 2.8 0 4-.7 6-3.3 2.9-3.8 3.2-6.6 1.2-10.6-2.5-4.8-8-7.2-12.4-5.4zm7.8 6.8c2 2.4-.3 6.7-3.3 6.3-2.5-.3-3.5-4.1-1.7-6.4 1.6-1.8 3.4-1.8 5 .1z"/></svg>