<?xml version="1.0" standalone="no"?>
<!DOCTYPE svg PUBLIC "-//W3C//DTD SVG 20010904//EN"
 "http://www.w3.org/TR/2001/REC-SVG-20010904/DTD/svg10.dtd">
<svg version="1.0" xmlns="http://www.w3.org/2000/svg"
 width="2048.000000pt" height="2048.000000pt" viewBox="0 0 2048.000000 2048.000000"
 preserveAspectRatio="xMidYMid meet">
<metadata>
Created by potrace 1.11, written by Peter Selinger 2001-2013
</metadata>
<g transform="translate(0.000000,2048.000000) scale(0.100000,-0.100000)"
fill="#000000" stroke="none">
<path d="M9613 13795 c-5 -8 -30 -37 -57 -65 -27 -28 -62 -67 -76 -85 -15 -19
-30 -32 -34 -28 -3 3 -6 1 -6 -5 0 -7 -17 -29 -37 -51 -21 -21 -72 -76 -113
-122 -41 -46 -88 -97 -105 -115 -16 -17 -64 -68 -105 -114 -41 -45 -85 -93
-97 -107 -13 -13 -23 -29 -23 -35 0 -6 -3 -9 -6 -6 -3 4 -22 -12 -42 -35 -20
-23 -58 -64 -84 -92 -25 -27 -55 -59 -65 -71 -31 -37 -177 -195 -210 -231 -18
-18 -33 -38 -33 -44 0 -5 -4 -7 -10 -4 -5 3 -10 3 -10 -2 0 -4 -19 -29 -42
-54 -24 -25 -77 -83 -118 -128 -41 -46 -94 -103 -117 -128 -24 -24 -43 -46
-43 -48 0 -2 -19 -23 -42 -47 -24 -25 -79 -84 -123 -133 -44 -48 -91 -100
-105 -115 -14 -15 -61 -67 -105 -115 -44 -49 -97 -106 -117 -127 -21 -21 -38
-40 -38 -42 0 -2 -21 -25 -47 -53 -27 -27 -79 -84 -116 -126 -64 -70 -71 -75
-93 -65 -13 6 -24 15 -24 20 0 4 -5 8 -10 8 -10 0 -25 9 -202 124 -48 31 -92
56 -98 56 -5 0 -10 5 -10 11 0 5 -4 7 -10 4 -5 -3 -10 -2 -10 2 0 5 -27 25
-60 44 -33 18 -60 38 -60 42 0 5 -4 6 -8 3 -5 -3 -18 4 -30 14 -12 11 -23 20
-26 20 -6 0 -126 75 -143 90 -7 5 -16 10 -21 10 -4 0 -18 9 -30 20 -12 12 -22
18 -22 14 0 -3 -15 5 -34 20 -19 14 -39 26 -45 26 -6 0 -11 3 -11 8 0 4 -9 12
-20 17 -36 18 -165 99 -171 107 -3 5 -24 -10 -46 -32 -23 -22 -38 -40 -35 -40
4 0 -5 -11 -20 -24 -16 -13 -28 -26 -28 -29 0 -4 -18 -24 -40 -47 -21 -22 -37
-40 -34 -40 4 0 -7 -13 -22 -28 -16 -15 -51 -54 -79 -86 -27 -32 -63 -72 -80
-90 -29 -32 -111 -124 -155 -176 -65 -75 -208 -236 -232 -262 -10 -10 -16 -18
-14 -18 2 0 -10 -15 -27 -33 -18 -19 -57 -62 -87 -96 -30 -35 -66 -75 -80 -90
-14 -15 -43 -48 -65 -74 -22 -26 -43 -47 -48 -47 -8 0 -57 49 -232 235 -66 70
-150 159 -188 197 -37 38 -67 74 -67 80 0 6 -3 9 -6 5 -3 -3 -18 8 -33 25
l-27 30 -134 -141 c-74 -78 -164 -172 -200 -210 -36 -37 -128 -134 -205 -215
-77 -82 -160 -170 -185 -196 -25 -26 -103 -109 -175 -184 -71 -75 -166 -174
-210 -221 -70 -73 -253 -265 -385 -405 -25 -26 -115 -121 -200 -210 -163 -172
-181 -191 -380 -401 -69 -73 -145 -153 -170 -179 -25 -26 -108 -114 -185 -195
-77 -81 -166 -175 -197 -207 -32 -32 -58 -60 -58 -62 0 -2 -29 -33 -65 -68
-36 -36 -65 -67 -65 -70 0 -6 2460 -1 2467 6 3 3 14 1 24 -5 13 -6 25 -6 38 0
10 6 21 8 24 4 4 -3 37 -5 74 -4 37 1 97 1 133 0 36 0 72 -1 80 0 41 2 167 2
175 1 6 -2 12 -2 15 -1 16 6 120 5 120 -1 0 -4 6 -5 14 -2 27 10 416 9 421 -1
3 -7 7 -7 10 0 3 6 45 9 108 7 126 -3 113 -3 167 1 25 2 51 -1 58 -6 6 -5 12
-6 12 -1 0 5 809 10 1856 12 1022 1 1861 5 1865 8 5 3 9 0 9 -6 0 -6 5 -8 11
-5 15 10 209 11 209 2 0 -5 5 -5 12 -1 17 11 7428 11 7428 1 0 -5 5 -5 10 -2
6 4 99 6 208 5 654 -3 941 -8 952 -15 9 -6 11 -4 5 5 -5 9 -2 10 11 6 11 -3
55 -6 99 -7 115 -1 112 -2 89 19 -10 11 -55 59 -99 107 -44 48 -90 98 -102
110 -12 13 -19 26 -16 29 4 3 1 6 -5 6 -7 0 -25 14 -40 31 -15 17 -47 53 -72
79 -106 113 -147 158 -182 197 -20 23 -39 39 -42 35 -3 -3 -6 0 -6 7 0 7 -15
28 -32 46 -18 18 -67 70 -108 115 -41 45 -93 101 -115 125 -22 23 -76 82 -120
130 -44 48 -99 107 -122 132 -24 24 -43 46 -43 47 0 2 -24 28 -52 58 -47 49
-223 236 -288 307 -34 36 -246 264 -290 311 -19 20 -91 97 -160 170 -69 73
-141 150 -160 170 -43 46 -257 272 -363 383 -44 45 -135 139 -203 209 -68 71
-124 132 -124 138 0 5 -6 10 -13 10 -13 0 -47 35 -47 48 0 5 -11 15 -25 22
-13 7 -22 17 -19 22 3 4 1 8 -4 8 -6 0 -41 32 -78 71 -38 40 -85 87 -105 105
-19 19 -84 81 -143 139 -59 58 -109 105 -112 105 -4 0 -52 40 -84 70 -16 16
-79 17 -89 1 -3 -4 -21 -16 -38 -25 -18 -9 -33 -21 -33 -26 0 -6 -5 -10 -10
-10 -15 0 -59 -40 -204 -186 -147 -147 -246 -253 -246 -266 0 -4 -7 -8 -15 -8
-8 0 -15 -4 -15 -10 0 -5 -12 -22 -27 -38 -16 -16 -44 -48 -65 -73 -20 -24
-46 -55 -58 -69 -12 -14 -54 -63 -94 -110 -39 -47 -79 -93 -90 -102 -10 -10
-17 -18 -14 -18 3 0 -10 -17 -29 -37 -19 -21 -54 -64 -78 -95 -23 -31 -45 -54
-49 -51 -3 4 -6 -1 -6 -10 0 -9 -4 -17 -10 -17 -5 0 -10 -5 -10 -10 0 -6 -16
-26 -35 -46 l-35 -35 -34 26 c-18 14 -38 25 -44 25 -7 0 -12 4 -12 8 0 5 -16
17 -35 28 -19 10 -35 22 -35 26 0 5 -7 8 -15 8 -8 0 -15 3 -15 8 0 4 -23 20
-50 37 -28 16 -50 33 -50 37 0 4 -6 8 -13 8 -7 0 -23 9 -35 20 -12 11 -24 20
-27 20 -8 0 -69 44 -73 53 -2 4 -10 7 -18 7 -8 0 -14 5 -14 10 0 6 -6 10 -13
10 -8 0 -22 9 -32 20 -10 11 -24 20 -32 20 -7 0 -13 5 -13 10 0 6 -6 10 -14
10 -8 0 -16 4 -18 8 -1 4 -93 68 -202 141 l-199 134 -34 -39 c-19 -22 -47 -55
-61 -74 -15 -19 -31 -40 -37 -46 -5 -6 -21 -25 -35 -43 -14 -18 -38 -48 -55
-66 -16 -18 -39 -46 -50 -61 -26 -36 -53 -69 -87 -105 -16 -16 -28 -33 -28
-37 0 -5 -15 -23 -34 -41 l-33 -32 -18 28 c-10 15 -22 32 -27 38 -5 5 -17 21
-28 34 -11 13 -20 27 -20 30 0 4 -12 20 -27 37 -40 44 -73 91 -73 104 0 5 -4
10 -9 10 -4 0 -27 27 -50 60 -23 33 -47 60 -52 60 -6 0 -8 4 -5 8 3 5 -6 20
-20 35 -13 14 -24 29 -24 31 0 3 -8 15 -17 27 -40 47 -49 58 -63 80 -8 12 -28
37 -44 56 -15 18 -25 33 -22 33 4 0 -2 10 -14 23 -37 41 -110 137 -105 137 3
0 -4 11 -17 24 -23 24 -41 47 -68 86 -39 57 -115 155 -122 158 -4 2 -8 8 -8
13 0 5 -7 17 -16 28 -16 18 -18 18 -83 -6 -36 -14 -76 -28 -89 -30 -12 -3 -25
-9 -28 -14 -3 -5 -12 -9 -21 -9 -8 0 -29 -6 -46 -14 -35 -15 -129 -50 -137
-51 -7 0 -68 -24 -105 -41 -27 -12 -31 -11 -50 13 -11 14 -30 37 -42 51 -13
14 -23 28 -23 31 0 3 -13 20 -28 37 -15 18 -34 42 -42 54 -8 12 -23 32 -33 43
-10 12 -31 37 -45 56 -15 19 -37 45 -49 59 -13 14 -23 29 -23 34 0 5 -10 19
-22 32 -13 12 -32 35 -43 50 -16 22 -94 123 -232 301 -5 6 -24 30 -43 55 -18
25 -40 52 -47 60 -13 15 -116 147 -163 210 -42 56 -75 95 -82 98 -5 2 -8 9 -8
15 0 7 -16 30 -36 52 -20 22 -43 51 -52 65 -9 14 -22 29 -29 33 -7 4 -13 14
-13 22 0 7 -4 15 -8 17 -4 2 -28 29 -52 61 -25 31 -48 57 -52 57 -5 0 -8 6 -8
13 0 7 -11 24 -25 39 -14 15 -25 30 -25 33 0 3 -8 14 -17 24 -21 23 -22 24
-93 116 -107 139 -152 195 -155 195 -2 0 -8 -7 -12 -15z m21 -505 c32 -63 62
-124 68 -135 6 -11 75 -146 152 -300 78 -154 145 -283 149 -286 5 -3 9 -12 11
-20 1 -8 23 -56 49 -106 26 -51 44 -94 40 -94 -23 -4 -270 -20 -330 -22 -7 0
-13 -2 -13 -3 0 -2 -7 -29 -16 -61 -8 -32 -17 -69 -20 -83 -3 -14 -9 -38 -14
-55 -11 -35 -49 -181 -55 -210 -12 -62 -17 -79 -21 -87 -3 -4 -7 -17 -10 -28
-5 -26 -9 -41 -29 -120 -9 -36 -18 -72 -20 -80 -2 -8 -4 -15 -5 -15 -1 0 -3
-9 -5 -20 -2 -11 -8 -35 -13 -53 -6 -18 -11 -35 -12 -37 -9 -48 -14 -66 -21
-71 -5 -3 -7 -9 -4 -14 3 -5 -1 -32 -9 -60 -8 -27 -13 -50 -10 -50 3 0 2 -6
-3 -12 -4 -7 -8 -17 -10 -23 -2 -9 -10 -45 -17 -70 -1 -5 -5 -19 -9 -30 -3
-11 -8 -33 -11 -48 -3 -15 -13 -54 -22 -85 -10 -31 -17 -60 -16 -64 1 -4 -2
-18 -7 -31 -12 -31 -5 -38 124 -142 61 -49 118 -96 127 -104 9 -9 31 -27 48
-41 17 -14 36 -30 43 -35 7 -6 34 -28 62 -50 27 -22 56 -47 65 -55 9 -8 61
-51 115 -95 55 -44 110 -90 123 -102 12 -13 27 -23 32 -23 4 0 10 -3 12 -7 2
-5 28 -28 58 -53 94 -76 100 -86 49 -76 -36 7 -182 19 -246 20 -24 1 -43 3
-43 6 0 3 -19 5 -43 6 -44 1 -166 10 -277 20 -36 4 -91 7 -122 8 -32 0 -58 3
-58 6 0 3 -17 6 -37 6 -36 1 -161 11 -251 20 -23 2 -74 6 -113 8 -64 4 -72 2
-76 -15 -3 -10 -8 -19 -12 -19 -4 0 -15 -15 -26 -32 -10 -18 -21 -35 -25 -38
-3 -3 -22 -31 -43 -62 -21 -31 -44 -64 -53 -72 -8 -9 -12 -16 -8 -16 4 0 -1
-10 -12 -22 -11 -13 -38 -50 -60 -83 -21 -33 -41 -62 -44 -65 -11 -11 -50 -70
-50 -75 0 -3 -11 -18 -25 -33 -14 -15 -28 -37 -31 -49 -4 -13 -10 -23 -15 -23
-4 0 -19 -18 -32 -40 l-23 -40 -369 365 c-327 324 -395 386 -395 357 0 -4 -13
-13 -28 -20 -16 -6 -37 -20 -48 -30 -19 -18 -27 -22 -43 -22 -5 0 -16 -6 -23
-12 -13 -13 -21 -18 -94 -59 -85 -48 -103 -59 -166 -97 -36 -22 -83 -50 -105
-62 -21 -11 -55 -31 -75 -43 -20 -12 -68 -40 -105 -61 -37 -22 -70 -42 -73
-45 -3 -3 -21 -14 -40 -24 -65 -35 -95 -52 -100 -58 -3 -3 -21 -14 -40 -24
-19 -10 -37 -21 -40 -24 -3 -3 -30 -19 -60 -35 -30 -16 -57 -32 -60 -36 -3 -3
-21 -14 -40 -23 -19 -10 -48 -27 -65 -37 -50 -33 -105 -61 -105 -54 0 5 59 81
85 110 6 6 21 26 35 44 14 19 34 44 45 56 11 12 27 32 35 44 8 13 20 28 25 34
33 36 95 120 95 128 0 5 5 6 10 3 6 -3 10 -1 10 4 0 6 7 19 15 28 8 10 48 61
89 113 41 52 86 107 100 123 14 15 23 27 20 27 -3 0 1 6 8 13 7 8 27 31 43 52
64 82 119 150 125 155 3 3 19 23 35 45 17 22 32 42 35 45 3 3 30 37 60 75 30
39 65 81 77 95 13 14 23 28 23 31 0 3 10 17 23 31 12 13 31 37 42 52 11 16 27
36 36 45 8 9 30 36 49 61 19 25 37 47 40 50 3 3 21 25 40 50 50 66 53 69 78
95 12 13 22 29 22 34 0 6 9 16 20 23 11 7 20 18 20 25 0 6 3 13 8 15 4 2 23
23 42 48 19 25 37 47 40 50 5 4 99 123 125 158 5 8 20 24 33 37 12 12 22 27
22 33 0 6 10 18 22 26 12 9 19 16 14 16 -5 0 2 10 16 23 14 13 27 28 29 34 5
12 65 87 96 120 12 13 19 23 15 23 -4 0 -2 4 4 8 5 4 37 41 69 82 33 41 64 80
70 86 5 7 19 24 30 40 19 27 41 54 115 144 19 24 51 64 70 89 19 25 64 83 100
127 36 45 79 98 95 119 17 21 69 88 118 149 48 61 87 114 87 119 0 4 5 5 10 2
6 -3 10 -2 10 3 0 9 48 73 163 216 67 83 97 121 105 131 4 6 43 55 87 110 98
123 91 115 116 145 12 14 28 35 37 48 8 13 18 19 22 15 4 -4 33 -60 64 -123z
m5502 -1665 c8 -8 15 -18 15 -22 0 -22 12 -53 21 -53 5 0 6 -4 3 -10 -3 -5 -1
-10 4 -10 6 0 11 -5 11 -11 0 -10 37 -88 213 -449 29 -58 51 -108 49 -112 -1
-5 2 -8 6 -8 5 0 15 -18 22 -40 7 -22 18 -40 23 -40 6 0 7 -3 4 -6 -4 -4 4
-21 16 -38 12 -17 20 -31 18 -31 -2 0 -1 -10 3 -22 4 -13 12 -23 17 -23 5 0 9
-6 9 -13 0 -12 76 -174 141 -302 20 -39 20 -40 1 -55 -24 -18 -81 -50 -85 -47
-2 1 -11 -6 -21 -15 -10 -10 -24 -18 -32 -18 -8 0 -14 -4 -14 -10 0 -5 -6 -10
-14 -10 -7 0 -19 -7 -26 -15 -7 -8 -16 -12 -21 -9 -5 3 -9 0 -9 -5 0 -6 -4
-11 -9 -11 -5 0 -33 -15 -64 -33 l-55 -33 29 -40 c16 -21 35 -46 42 -54 7 -9
16 -24 20 -33 3 -9 11 -17 16 -17 5 0 12 -9 16 -19 3 -11 19 -34 35 -53 16
-18 30 -37 30 -41 0 -5 6 -14 13 -21 6 -7 20 -24 29 -37 10 -13 45 -61 78
-107 33 -45 60 -86 60 -91 0 -5 3 -11 8 -13 12 -5 72 -86 72 -97 0 -6 3 -11 8
-11 4 0 20 -20 35 -45 16 -25 33 -45 39 -45 5 0 6 -4 3 -10 -3 -5 -1 -10 4
-10 6 0 11 -6 11 -14 0 -8 3 -16 8 -18 4 -1 27 -30 51 -63 25 -33 49 -64 55
-68 16 -12 -61 -1 -129 18 -97 27 -128 34 -136 29 -4 -2 -9 0 -11 5 -1 6 -16
12 -33 15 -16 3 -61 14 -100 25 -38 11 -73 17 -77 15 -4 -3 -8 0 -8 5 0 6 -13
11 -28 11 -16 0 -32 3 -36 7 -8 8 -34 14 -58 14 -10 0 -18 4 -18 7 0 4 -8 8
-19 9 -10 1 -38 7 -62 14 -24 7 -52 13 -61 12 -10 0 -18 4 -18 8 0 5 -13 9
-28 9 -16 0 -32 3 -36 7 -3 4 -12 8 -19 9 -7 1 -32 7 -57 14 -25 7 -49 13 -55
15 -37 8 -72 18 -85 22 -8 4 -23 7 -32 7 -9 1 -20 4 -24 9 -4 4 -19 7 -34 7
-15 0 -30 3 -34 7 -3 4 -12 8 -19 9 -7 1 -22 4 -34 6 -12 2 -25 7 -29 11 -7 6
-126 -71 -132 -85 -2 -5 -10 -8 -18 -8 -8 0 -14 -4 -14 -8 0 -5 -16 -17 -35
-28 -19 -10 -35 -22 -35 -26 0 -5 -7 -8 -15 -8 -8 0 -15 -4 -15 -10 0 -5 -7
-10 -15 -10 -8 0 -15 -4 -15 -8 0 -4 -15 -16 -32 -27 -18 -10 -37 -24 -41 -32
-4 -7 -14 -13 -21 -13 -7 0 -25 -11 -40 -25 -14 -13 -26 -22 -26 -19 0 3 -18
-9 -40 -26 -22 -17 -40 -28 -40 -23 0 4 -5 0 -11 -10 -6 -9 -14 -15 -20 -12
-5 4 -9 2 -9 -3 0 -5 -20 -22 -45 -38 -25 -15 -45 -32 -45 -37 0 -4 -4 -5 -10
-2 -5 3 -10 2 -10 -3 0 -5 -7 -9 -15 -9 -8 0 -15 4 -15 9 0 5 -7 16 -15 24 -8
9 -15 13 -15 10 0 -3 -8 2 -18 12 -11 9 -17 20 -15 25 2 4 0 7 -6 7 -6 0 -35
24 -65 53 -86 82 -318 302 -353 335 -40 37 -41 45 -5 63 15 8 29 16 32 19 14
14 70 50 79 50 5 0 11 4 13 9 2 4 21 19 44 32 23 13 72 45 110 70 69 46 143
95 172 114 9 6 21 14 26 18 52 39 176 114 180 109 3 -3 6 0 6 6 0 6 14 19 32
28 17 9 36 20 42 26 20 17 208 138 215 138 4 0 14 9 24 20 10 12 21 18 26 15
5 -2 11 2 15 10 3 8 12 15 21 15 8 0 15 5 15 10 0 6 7 10 15 10 9 0 18 7 21
15 4 8 11 15 17 15 12 0 121 71 125 82 2 4 8 8 14 8 6 0 33 16 59 35 27 19 52
35 55 35 3 0 22 12 42 27 20 15 38 27 39 28 1 0 13 87 18 145 2 14 4 25 5 25
1 0 3 16 5 35 2 19 6 53 10 75 11 69 18 129 18 158 0 15 3 27 7 27 3 0 6 17 6
38 1 20 4 55 8 77 4 22 9 57 11 78 3 20 8 56 11 80 3 23 7 53 9 67 6 55 16
126 20 145 2 11 4 35 4 53 1 36 6 39 27 17z m-3487 -54 c11 -32 21 -63 21 -70
0 -6 3 -11 8 -11 6 0 17 -27 36 -85 6 -20 19 -51 36 -91 10 -22 26 -64 35 -92
10 -29 21 -52 26 -52 5 0 6 -7 3 -15 -6 -15 -37 -31 -140 -76 -50 -21 -62 -37
-66 -86 -1 -7 -6 -13 -11 -13 -6 0 -8 -3 -4 -6 3 -3 1 -18 -5 -33 -5 -14 -12
-36 -14 -48 -7 -35 -23 -73 -31 -74 -5 -1 -17 -3 -28 -4 -25 -3 -109 -14 -155
-20 -19 -3 -46 -7 -60 -10 -14 -3 -53 -7 -88 -11 -35 -3 -73 -7 -85 -10 -12
-2 -49 -7 -82 -10 -33 -4 -69 -10 -80 -14 -11 -4 -28 -4 -38 -1 -17 6 -17 8 5
33 26 29 39 45 88 108 19 24 40 50 45 56 6 6 21 25 35 43 13 18 35 44 47 57
13 14 23 28 23 32 0 4 15 24 33 44 17 20 42 49 54 65 12 15 30 38 40 50 10 12
28 35 40 50 12 15 30 38 40 50 10 12 29 36 43 54 14 18 39 49 55 70 17 20 41
51 55 69 14 17 37 46 52 63 15 18 28 35 28 40 0 4 4 7 9 7 4 0 18 -26 30 -59z
m-5308 -98 c11 -48 22 -104 25 -123 3 -19 9 -42 14 -50 4 -8 5 -20 3 -27 -4
-11 64 -68 97 -81 8 -3 23 -14 33 -25 9 -11 17 -17 17 -13 0 3 27 -12 61 -35
44 -31 58 -46 54 -58 -4 -9 -7 -20 -8 -26 -1 -5 -5 -12 -8 -15 -3 -3 -22 -45
-43 -95 -21 -49 -49 -113 -62 -142 -13 -28 -24 -54 -24 -56 0 -2 -10 -26 -22
-53 -12 -27 -23 -51 -23 -54 0 -3 -9 -20 -18 -37 -10 -18 -17 -35 -17 -38 0
-3 -7 -20 -14 -37 -8 -18 -21 -49 -29 -68 -111 -256 -181 -418 -188 -432 -10
-19 -39 -14 -39 7 0 7 -13 28 -30 46 -16 19 -30 37 -30 42 0 4 -8 15 -17 25
-10 11 -27 32 -38 47 -108 150 -200 275 -223 300 -7 8 -10 15 -5 15 4 0 3 4
-3 8 -6 4 -34 37 -62 75 -45 58 -50 71 -42 92 5 14 16 28 25 31 8 3 13 10 10
14 -3 5 2 15 10 23 8 9 15 18 15 22 0 6 10 19 38 50 6 7 12 18 12 24 0 5 7 16
15 25 21 21 105 147 105 157 0 5 4 9 9 9 5 0 12 8 15 18 3 9 19 33 36 52 16
19 30 38 30 42 0 8 78 121 104 150 8 9 12 18 10 21 -2 2 5 12 16 22 11 10 20
22 20 27 0 5 6 16 13 23 15 18 29 37 42 57 36 59 90 136 93 133 2 -2 12 -43
23 -92z m6763 -395 c7 -7 55 -51 106 -98 51 -47 109 -100 128 -117 20 -18 40
-33 44 -33 4 0 8 -7 8 -15 0 -8 4 -15 9 -15 5 0 24 -14 42 -31 142 -132 132
-119 110 -137 -53 -46 -62 -52 -70 -52 -5 0 -11 -3 -13 -8 -1 -4 -32 -30 -68
-57 -36 -28 -66 -53 -68 -57 -2 -5 -9 -8 -16 -8 -6 0 -18 -9 -26 -20 -8 -11
-19 -20 -25 -20 -6 0 -18 -8 -26 -17 -9 -10 -29 -27 -45 -38 -15 -11 -36 -28
-46 -37 -10 -10 -18 -16 -18 -13 0 3 -14 -8 -31 -25 -18 -16 -36 -30 -40 -30
-5 0 -22 -13 -39 -30 -16 -16 -30 -27 -30 -24 0 3 -6 -1 -14 -8 -8 -7 -29 -24
-47 -38 -18 -14 -38 -31 -45 -37 -7 -7 -17 -13 -23 -13 -6 0 -11 -3 -11 -7 0
-5 -23 -24 -50 -43 -27 -19 -50 -38 -50 -42 0 -5 -6 -8 -14 -8 -8 0 -17 -6
-19 -12 -3 -7 -6 7 -7 32 -2 45 -3 62 -14 195 -4 39 -8 110 -11 159 -3 48 -8
92 -11 97 -3 5 -2 9 3 9 4 0 22 13 39 28 73 63 85 72 95 72 5 0 7 5 4 10 -3 6
-1 10 4 10 6 0 19 8 29 18 31 29 124 106 139 115 20 12 37 62 48 142 1 11 4
21 5 23 4 4 6 14 14 75 5 31 13 57 18 57 5 0 6 5 3 10 -7 11 3 50 11 50 3 0
11 -6 18 -12z m-8569 -235 c-15 -54 -74 -285 -79 -308 -2 -5 -8 -30 -15 -55
-7 -25 -15 -53 -16 -62 -5 -24 -36 -140 -43 -158 -3 -8 -6 -19 -6 -25 -3 -21
-19 -80 -24 -90 -3 -5 -7 -21 -9 -36 -1 -15 -9 -47 -17 -71 -7 -23 -17 -55
-20 -70 l-6 -28 57 6 c32 3 69 7 83 9 14 2 52 6 85 10 33 4 69 9 80 11 11 2
47 7 80 10 33 3 75 7 93 10 68 9 89 12 147 18 32 4 63 10 67 12 5 3 10 -1 12
-8 6 -22 25 -111 30 -138 2 -14 9 -45 16 -70 14 -52 19 -76 24 -110 3 -14 9
-37 15 -52 6 -16 9 -28 6 -28 -2 0 1 -15 6 -32 6 -18 12 -42 14 -53 8 -42 16
-81 27 -120 16 -60 18 -75 10 -76 -40 -6 -452 -24 -728 -32 -55 -2 -106 -7
-112 -11 -7 -4 -12 -3 -12 3 0 6 -11 6 -30 1 -19 -5 -30 -5 -30 1 0 6 -6 7
-12 3 -7 -5 -44 -9 -83 -10 -39 -1 -81 -7 -94 -13 -13 -7 -34 -15 -49 -17 -14
-3 -30 -8 -36 -12 -6 -3 -15 -7 -21 -9 -11 -2 -92 -31 -115 -40 -18 -7 -28
-10 -57 -17 -12 -2 -32 -10 -45 -17 -13 -7 -24 -12 -25 -11 -2 1 -8 -1 -15 -3
-7 -3 -69 -23 -138 -46 -68 -22 -130 -45 -137 -51 -7 -5 -16 -7 -20 -5 -5 3
-22 0 -38 -8 -17 -7 -61 -23 -100 -36 -38 -13 -76 -27 -83 -32 -7 -6 -15 -7
-18 -4 -7 7 96 157 108 157 4 0 8 6 8 14 0 8 6 21 13 28 7 7 41 54 76 103 35
50 68 92 72 93 5 2 9 8 9 14 0 6 11 24 25 42 14 17 29 36 33 41 5 6 17 24 28
40 10 17 23 35 27 40 5 6 53 73 108 150 55 77 105 142 110 143 5 2 7 7 5 11
-3 4 8 22 24 40 17 18 30 35 30 39 0 4 10 19 23 34 12 15 42 57 67 93 25 37
50 72 55 78 6 7 33 44 60 82 27 39 53 72 57 73 5 2 8 8 8 14 0 6 10 19 22 29
11 11 18 19 14 19 -4 0 20 36 54 79 33 44 60 82 60 85 0 3 7 14 15 23 33 40
114 153 110 153 -3 0 3 9 13 19 25 28 34 40 72 96 18 28 37 52 40 55 4 3 15
20 26 38 25 44 30 20 9 -55z"/>
</g>
</svg>
