<?xml version="1.0" encoding="UTF-8" standalone="no"?>
<!DOCTYPE svg PUBLIC "-//W3C//DTD SVG 1.1//EN" "http://www.w3.org/Graphics/SVG/1.1/DTD/svg11.dtd">
<svg version="1.1" xmlns="http://www.w3.org/2000/svg" xmlns:xlink="http://www.w3.org/1999/xlink" preserveAspectRatio="xMidYMid meet" viewBox="0 0 70 75" width="100" height="100"><defs><path d="M63.28 21.77C52.04 -1.13 21.25 -2.62 7.99 19.09C-3.62 38.12 5.58 62.78 24.81 69.02C26.41 69.33 26.99 68.29 26.99 67.4C26.99 66.6 26.96 63.95 26.95 61.15C18.06 63.18 16.19 57.19 16.19 57.19C14.73 53.3 12.64 52.27 12.64 52.27C9.74 50.18 12.86 50.23 12.86 50.23C16.06 50.46 17.76 53.69 17.76 53.69C20.61 58.83 25.24 57.34 27.05 56.48C27.34 54.31 28.17 52.83 29.08 51.99C21.99 51.14 14.53 48.26 14.53 35.38C14.53 31.71 15.78 28.72 17.82 26.36C17.49 25.51 16.39 22.09 18.13 17.47C18.13 17.47 20.81 16.56 26.92 20.91C32.13 19.43 37.46 19.38 42.91 20.92C49 16.56 51.69 17.47 51.69 17.47C53.43 22.1 52.33 25.51 52 26.37C54.05 28.72 55.29 31.71 55.29 35.38C55.29 48.29 47.82 51.14 40.7 51.97C41.85 53.01 42.87 55.06 42.87 58.19C42.87 62.68 42.82 66.3 42.82 67.41C42.82 68.31 43.41 69.35 45.02 69.02C62.71 62.79 72.63 40.8 63.28 21.77Z" id="c4KXffgU2z"></path></defs><g><g><g><use xlink:href="#c4KXffgU2z" opacity="1" fill="#000000" fill-opacity="1"></use><g><use xlink:href="#c4KXffgU2z" opacity="1" fill-opacity="0" stroke="#000000" stroke-width="1" stroke-opacity="0"></use></g></g></g></g></svg>