<?xml version="1.0"?>
<svg width="193" height="72" xmlns="http://www.w3.org/2000/svg" xmlns:svg="http://www.w3.org/2000/svg" xmlns:xlink="http://www.w3.org/1999/xlink">
 <!-- Created with SVG-edit - https://github.com/SVG-Edit/svgedit-->
 <defs>
  <symbol height="300px" id="svg_2" viewBox="90 300 1000 1000" width="350px" x="0px" xmlns="http://www.w3.org/2000/svg" xmlns:xlink="http://www.w3.org/1999/xlink" y="0px">
   <g>
    <g>
     <path d="m50,777.361c0,0 254.009,-249.809 270.804,-265.551c16.793,-15.746 29.385,-33.588 49.329,-18.894c19.946,14.691 107.061,72.423 107.061,72.423s140.652,-115.459 155.345,-128.052c14.688,-12.596 34.632,-28.343 58.775,-11.548c24.141,16.797 94.464,61.929 94.464,61.929s28.341,-15.746 44.086,-24.142c15.744,-8.395 36.734,-17.844 59.827,9.447c23.095,27.29 260.309,287.594 260.309,287.594s-113.359,-81.865 -132.256,-101.811c-18.892,-19.944 -71.371,-60.88 -89.216,-67.177c-17.843,-6.297 -36.738,6.319 -36.738,6.319l-6.295,41.965l-47.233,-30.439l-66.125,8.397c0,0 36.736,-47.232 17.844,-47.232c-18.892,0 -55.632,16.833 -70.326,27.31c-14.692,10.476 -62.976,109.138 -95.513,109.138c33.587,-75.572 107.058,-163.742 116.504,-175.287c9.45,-11.543 0,-24.137 -6.296,-35.686c-6.299,-11.546 -57.729,-59.824 -65.076,-54.579c-7.347,5.247 -58.779,44.081 -57.726,65.075c1.046,20.993 -6.297,39.883 14.692,37.787c20.989,-2.098 47.232,-20.994 52.479,-40.936c19.945,34.639 12.596,70.324 -16.793,85.019c-29.388,14.696 -90.267,35.687 -91.315,75.572c-16.793,-31.487 -22.044,-69.274 -9.449,-88.167c-50.38,43.035 -48.279,86.07 -111.257,87.119c-31.49,32.538 -65.077,68.226 -65.077,68.226s57.727,30.438 95.516,17.842c37.786,-12.597 43.033,-58.78 61.928,-53.529c18.891,5.247 3.149,64.024 -59.829,72.423c-62.976,8.397 -162.689,-12.597 -201.525,2.1c23.088,-33.589 49.333,-28.34 78.72,-50.382c29.389,-22.041 83.969,-106.013 83.969,-106.013s-28.337,2.101 -43.034,-7.346c-14.697,-9.447 -16.796,-50.386 -52.482,-46.185c-35.687,4.198 -43.033,24.182 -49.333,37.808c-6.296,13.625 -14.69,38.815 -41.982,48.262c-27.292,9.446 -68.227,38.839 -81.87,75.574c26.238,5.244 52.482,40.934 52.482,40.934s-32.54,-2.097 -45.136,3.148c-12.598,5.246 -32.537,15.746 -32.537,15.746s-6.297,-32.54 -99.715,-4.201z" fill="#762224"/>
     <path d="m647.229,751.122c0,0 46.188,-35.689 59.83,-55.63c14.696,31.486 0,70.324 0,70.324s-44.083,8.397 -59.83,-14.694z" fill="#762224"/>
     <path d="m838.262,731.399c0,0 26.238,-14.917 49.328,-10.718c23.096,4.201 40.935,6.826 46.188,4.988c5.247,-1.84 4.199,-23.879 24.142,-19.681c19.94,4.197 32.532,30.437 36.732,45.133c4.201,14.694 -50.382,6.298 -78.194,0c-27.812,-6.297 -78.196,-19.722 -78.196,-19.722z" fill="#762224"/>
    </g>
   </g>
  </symbol>
 </defs>
 <g class="layer">
  <title>Layer 1</title>
  <use id="svg_3" transform="matrix(0.571679 0 0 0.588205 -2.77883 -12.5385)" x="-6.996936" xlink:href="#svg_2" y="-8.500438"/>
  <g id="svg_4"/>
 </g>
</svg>