<svg width="130" height="40" xmlns="http://www.w3.org/2000/svg"
     xmlns:xlink="http://www.w3.org/1999/xlink">
  <defs>
    <symbol height="140" id="a" viewBox="80 70 1000 1000" width="210" x="0"
            xmlns="http://www.w3.org/2000/svg" xmlns:xlink="http://www.w3.org/1999/xlink" y="0">
      <g fill="#762224">
        <path d="M50 777.361S304.009 527.552 320.804 511.81c16.793-15.746 29.385-33.588 49.329-18.894 19.946 14.691 107.061 72.423 107.061 72.423S617.846 449.88 632.539 437.287c14.688-12.596 34.632-28.343 58.775-11.548 24.141 16.797 94.464 61.929 94.464 61.929s28.341-15.746 44.086-24.142c15.744-8.395 36.734-17.844 59.827 9.447C912.786 500.263 1150 760.567 1150 760.567s-113.359-81.865-132.256-101.811c-18.892-19.944-71.371-60.88-89.216-67.177-17.843-6.297-36.738 6.319-36.738 6.319l-6.295 41.965-47.233-30.439-66.125 8.397s36.736-47.232 17.844-47.232c-18.892 0-55.632 16.833-70.326 27.31-14.692 10.476-62.976 109.138-95.513 109.138C657.729 631.465 731.2 543.295 740.646 531.75c9.45-11.543 0-24.137-6.296-35.686-6.299-11.546-57.729-59.824-65.076-54.579-7.347 5.247-58.779 44.081-57.726 65.075 1.046 20.993-6.297 39.883 14.692 37.787 20.989-2.098 47.232-20.994 52.479-40.936 19.945 34.639 12.596 70.324-16.793 85.019-29.388 14.696-90.267 35.687-91.315 75.572-16.793-31.487-22.044-69.274-9.449-88.167-50.38 43.035-48.279 86.07-111.257 87.119-31.49 32.538-65.077 68.226-65.077 68.226s57.727 30.438 95.516 17.842c37.786-12.597 43.033-58.78 61.928-53.529 18.891 5.247 3.149 64.024-59.829 72.423-62.976 8.397-162.689-12.597-201.525 2.1 23.088-33.589 49.333-28.34 78.72-50.382 29.389-22.041 83.969-106.013 83.969-106.013s-28.337 2.101-43.034-7.346-16.796-50.386-52.482-46.185c-35.687 4.198-43.033 24.182-49.333 37.808-6.296 13.625-14.69 38.815-41.982 48.262-27.292 9.446-68.227 38.839-81.87 75.574 26.238 5.244 52.482 40.934 52.482 40.934s-32.54-2.097-45.136 3.148c-12.598 5.246-32.537 15.746-32.537 15.746s-6.297-32.54-99.715-4.201z"/>
        <path d="M647.229 751.122s46.188-35.689 59.83-55.63c14.696 31.486 0 70.324 0 70.324s-44.083 8.397-59.83-14.694zM838.262 731.399s26.238-14.917 49.328-10.718c23.096 4.201 40.935 6.826 46.188 4.988 5.247-1.84 4.199-23.879 24.142-19.681 19.94 4.197 32.532 30.437 36.732 45.133 4.201 14.694-50.382 6.298-78.194 0-27.812-6.297-78.196-19.722-78.196-19.722z"/>
      </g>
    </symbol>
  </defs>
  <g class="layer">
    <use transform="matrix(.57168 0 0 .5882 -2.7788 -12.5385)" x="-6.9969" xlink:href="#a" y="-8.5004"/>
  </g>
</svg>
