<?xml version="1.0" encoding="UTF-8" standalone="no"?>
<!DOCTYPE svg PUBLIC "-//W3C//DTD SVG 1.1//EN" "http://www.w3.org/Graphics/SVG/1.1/DTD/svg11.dtd">
<svg version="1.1" xmlns="http://www.w3.org/2000/svg" xmlns:xlink="http://www.w3.org/1999/xlink" preserveAspectRatio="xMidYMid meet" viewBox="0 0 100 100" width="150" height="150"><defs><path d="M45.91 43.13C45.67 49.97 46.3 55.4 47.14 57.07C47.99 58.74 50.77 61.22 56.99 60.17C62.19 59.29 64.57 57.58 65.39 53.81C65.99 51.03 66.83 45.31 66.98 43.73" id="a2iOkxikGh"></path><path d="M41.44 8.07C41.44 8.07 12.79 -1.05 14.1 19.68C14.38 24.1 22.57 53.07 31.76 44.32C37.32 40.21 38.15 38.61 38.15 38.61" id="b13ahLxKwL"></path><path d="M54.64 6.4C53.67 6.64 70.31 1.58 79.76 11.16C83.1 14.54 79.23 28.36 69.97 39.24" id="fbeNawKiE"></path><path d="M69.97 37.01C69.97 37.01 70.57 39.36 79.34 37.93C83.19 37.3 80.87 41.93 76.98 43.36C73.78 44.54 66.61 44.84 66.49 43.21C66.19 39.02 70.27 38.06 69.97 37.01C69.71 36.06 67.88 37.37 66.68 35.05C65.63 33.03 52.24 17.53 70.39 19.83C71.05 19.72 65.66 6.16 48.68 5.94C31.7 5.72 32.26 22.48 32.26 22.48" id="bbXTGVZ3S"></path><path d="M35.73 43.91C30.95 44.69 33.76 45.46 35.6 45.89C39.53 46.46 42.64 47.38 46.45 44.17C47.51 42.99 46.44 40.6 44.99 40.12C44.28 39.89 43.34 39.6 42.14 40.68C39.77 42.77 40.47 43.14 35.73 43.91Z" id="bFOg3rh0"></path><path d="M41.98 40.64C41.74 39.41 42.49 37.94 43.29 36.23C44.5 33.65 47.29 31.08 45.06 22.92C43.4 16.84 32.26 21.65 32.26 22.48C32.25 23.3 32.76 26.66 32.07 30.57C31.17 35.67 36.17 39.98 41.92 39.54" id="aHwlbOvU"></path><path d="M40.9 23.49C41.81 23.59 42.59 23 42.64 22.72C42.69 22.44 41.99 22.13 41.07 22.03C40.16 21.93 39.38 22.07 39.33 22.36C39.33 22.36 39.33 22.36 39.33 22.36C39.77 23.04 40.29 23.42 40.9 23.49Z" id="ed4V7uvBWQ"></path><path d="M65.56 22.91C64.64 23.02 63.86 22.43 63.81 22.15C63.77 21.87 64.47 21.56 65.38 21.45C66.29 21.35 67.07 21.5 67.12 21.78C67.12 21.78 67.12 21.78 67.12 21.78C66.69 22.47 66.17 22.85 65.56 22.91Z" id="cKXnepbV8"></path><path d="M70.39 19.83C70.54 22.04 69.79 23.55 69.69 25.9C69.55 29.32 71.75 33.23 68.44 37.15" id="a1eWTZLFJR"></path><path d="M36.39 39.51L41.84 39.41L39.45 42.19L35.32 41.89L36.39 39.51Z" id="ashMTu49"></path><path d="M69 38.3C77.54 28.26 81.1 15.53 78.03 12.41C69.63 3.91 55.09 7.93 54.85 8.04C54.84 8.04 54.78 8.05 54.77 8.05C53.17 7.78 51.39 7.63 49.38 7.6C45.72 7.55 42.95 8.36 40.84 9.63C40.84 9.63 14.91 1.16 16.12 20.27C16.37 24.34 23.47 51.04 31.94 42.97C35.03 40.02 38.02 37.53 38.02 37.53C39.51 38.31 41.28 38.71 43.15 38.57C43.16 38.56 43.28 38.48 43.29 38.47C43.25 38.84 43.27 39.19 43.35 39.62C41.17 41.55 41.81 41.89 37.45 42.6C33.04 43.32 35.63 44.6 37.32 44.94C39.37 45.34 44.12 45.92 47.33 42.36C47.31 42.4 47.21 42.73 47.2 42.77C48.05 43.31 48.65 46.3 48.55 49C48.45 51.71 48.39 53.57 49.06 55.02C49.73 56.47 50.4 59.74 56.13 58.76C60.92 57.95 63.41 55.84 63.75 52.33C64 49.83 64.55 50.2 64.58 47.96C64.63 47.86 64.99 47.01 65.03 46.9C65.54 43.52 65.11 42.42 68.06 42.93C68.13 42.94 68.71 42.98 68.78 42.98C70.95 43.06 73.79 42.71 75.46 42.09C79.05 40.77 81.18 38.56 77.64 39.14C77.64 39.14 77.64 39.14 77.64 39.14C73.04 38.69 70.16 38.41 69 38.3Z" id="f4qgItt1Lv"></path><path d="M47.67 41.09C47.45 47.39 47.73 53.74 48.51 55.28C49.29 56.82 50.95 59.82 56.69 58.85C61.47 58.04 63.22 56.46 63.97 52.99C64.53 50.43 65.6 43.33 65.74 41.88" id="a2NcVB9gR9"></path><path d="M40.8 9.49C40.8 9.49 14.85 1.08 16.06 20.19C16.32 24.26 23.42 50.96 31.88 42.89C34.97 39.94 37.77 37.63 37.77 37.63" id="kYwFX6ZH"></path><path d="M54.82 7.95C53.92 8.18 69.26 3.51 77.97 12.33C81.05 15.45 77.48 28.19 68.95 38.22" id="ba1dWoZnDK"></path><path d="M68.95 38.22C68.95 38.22 69.5 40.39 77.59 39.06C81.13 38.49 79 40.69 75.4 42.01C72.46 43.1 65.85 43.37 65.74 41.88C65.46 38.01 69.22 39.19 68.95 38.22C68.7 37.35 67.02 36.49 65.91 34.36C64.94 32.49 52.61 18.21 69.33 20.33C69.94 20.23 64.97 7.73 49.32 7.52C33.68 7.32 34.19 22.77 34.19 22.77" id="b3RSZj0kG3"></path><path d="M37.39 42.52C32.98 43.24 35.57 44.52 37.27 44.86C39.32 45.27 44.06 45.84 47.27 42.28C48.25 41.2 47.26 39.47 45.92 39.03C45.27 38.82 44.41 38.55 43.29 39.54C43.29 39.54 43.29 39.54 43.29 39.54C42.27 41.05 40.3 42.05 37.39 42.52Z" id="aCipT25sI"></path><path d="M43.15 39.51C42.93 38.37 43.62 37.02 44.36 35.44C45.47 33.07 48.04 30.7 45.99 23.17C44.46 17.57 34.2 22.01 34.19 22.77C34.18 23.53 34.65 26.62 34.02 30.22C33.19 34.92 37.79 38.9 43.09 38.49" id="dlrHCjBaX"></path><path d="M42.15 23.7C42.99 23.79 43.71 23.25 43.76 22.99C43.8 22.73 43.16 22.45 42.32 22.35C41.47 22.26 40.75 22.4 40.71 22.65C40.71 22.65 40.71 22.65 40.71 22.65C41.11 23.29 41.59 23.64 42.15 23.7Z" id="fYGz0UZjv"></path><path d="M64.88 23.17C64.04 23.26 63.32 22.72 63.27 22.46C63.23 22.2 63.87 21.92 64.72 21.82C65.56 21.73 66.28 21.87 66.32 22.13C66.32 22.13 66.32 22.13 66.32 22.13C65.92 22.76 65.44 23.11 64.88 23.17Z" id="bwoKmoxoM"></path><path d="M69.33 20.33C69.47 22.37 68.78 23.75 68.69 25.92C68.56 29.07 70.59 32.68 67.54 36.29" id="c2yTzZpqt9"></path><path d="M9.75 77.3L10.15 77.38L10.51 77.49L10.84 77.63L11.15 77.81L11.42 78.01L11.66 78.24L11.87 78.5L12.04 78.78L12.17 79.08L12.26 79.41L12.32 79.77L12.34 80.14L12.34 80.14L12.31 80.51L12.25 80.86L12.15 81.19L12 81.5L11.82 81.78L11.59 82.03L11.32 82.27L11.01 82.47L10.67 82.64L10.3 82.79L9.91 82.9L9.48 82.97L9.02 83.02L8.52 83.04L3.81 83.04L3.82 87.33L2.54 87.34L2.54 77.26L8.88 77.24L9.33 77.26L9.75 77.3ZM8.24 82.24L9.47 82.11L10.34 81.72L10.87 81.08L11.04 80.18L10.88 79.25L10.4 78.59L9.6 78.19L8.48 78.06L3.81 78.04L3.81 82.24L8.24 82.24ZM11.04 80.18L11.04 80.17L11.04 80.18L11.04 80.18Z" id="c11ugnKeQB"></path><path d="M18.74 80.65L19.43 80.85L20.03 81.13L20.54 81.5L20.93 81.89L21.23 82.34L21.45 82.84L21.57 83.41L21.62 84.03L21.57 84.64L21.45 85.2L21.23 85.71L20.94 86.16L20.55 86.55L20.03 86.91L19.43 87.2L18.73 87.4L17.95 87.52L17.08 87.56L16.66 87.55L16.26 87.53L15.88 87.48L15.52 87.41L15.18 87.33L14.87 87.22L14.57 87.09L14.29 86.94L14.03 86.76L13.78 86.57L13.38 86.15L13.07 85.69L12.85 85.19L12.72 84.63L12.68 84.03L12.72 83.42L12.85 82.87L13.06 82.37L13.36 81.92L13.74 81.52L14.25 81.15L14.84 80.86L15.51 80.65L16.26 80.53L17.08 80.49L17.96 80.53L18.74 80.65ZM15.71 81.39L15.14 81.63L14.66 81.96L14.46 82.15L14.28 82.36L14.13 82.59L14.01 82.85L13.91 83.11L13.84 83.4L13.8 83.7L13.79 84.03L13.84 84.64L14 85.19L14.26 85.68L14.64 86.09L15.11 86.43L15.68 86.67L16.33 86.81L17.08 86.86L17.91 86.81L18.62 86.66L19.22 86.41L19.71 86.07L19.9 85.88L20.06 85.67L20.2 85.45L20.31 85.21L20.4 84.94L20.46 84.66L20.49 84.35L20.51 84.03L20.51 84.03L20.29 82.79L19.65 81.91L18.58 81.38L17.08 81.21L16.35 81.25L15.71 81.39Z" id="bkaQhgpLl"></path><path d="M30.57 85.5C30.57 86.87 29.29 87.55 26.71 87.55C25.93 87.55 25.26 87.5 24.72 87.4C24.19 87.3 23.75 87.15 23.42 86.93C23.16 86.77 22.95 86.55 22.8 86.28C22.65 86.01 22.55 85.68 22.5 85.28C22.62 85.28 23.57 85.26 23.69 85.26C23.69 85.79 23.9 86.19 24.32 86.44C24.77 86.74 25.57 86.89 26.71 86.89C28.52 86.89 29.42 86.47 29.42 85.62C29.42 85.12 29.11 84.78 28.51 84.59C28.39 84.55 27.66 84.45 26.33 84.3C25 84.14 24.17 84 23.84 83.88C23.13 83.62 22.78 83.14 22.78 82.44C22.78 81.76 23.09 81.26 23.73 80.93C24.04 80.79 24.43 80.68 24.89 80.61C25.37 80.53 25.91 80.49 26.53 80.49C29 80.49 30.24 81.23 30.24 82.7C30.13 82.7 29.22 82.7 29.11 82.7C29.11 81.66 28.24 81.14 26.5 81.14C25.61 81.14 24.95 81.25 24.52 81.46C24.08 81.67 23.86 81.99 23.86 82.42C23.86 82.83 24.16 83.12 24.75 83.29C25.09 83.39 25.88 83.5 27.12 83.62C28.22 83.72 28.98 83.85 29.39 84.02C30.18 84.31 30.57 84.8 30.57 85.5" id="b1LIj3kB87"></path><path d="M35.76 87.35C35.58 87.39 35.42 87.41 35.27 87.42C35.13 87.43 35.03 87.44 34.97 87.44C34.2 87.44 33.63 87.33 33.29 87.12C32.95 86.9 32.78 86.52 32.78 85.98C32.78 85.68 32.78 84.15 32.78 81.4L31.36 81.4L31.36 80.72L32.76 80.72L32.78 78.54L33.86 78.54L33.86 80.73L35.76 80.72L35.76 81.41L33.86 81.39C33.86 84.06 33.86 85.55 33.86 85.84C33.86 86.18 33.96 86.41 34.14 86.53C34.33 86.66 34.67 86.72 35.15 86.72C35.21 86.72 35.29 86.72 35.37 86.71C35.46 86.69 35.58 86.67 35.75 86.64C35.75 86.69 35.76 86.92 35.76 87.33" id="eR92nonGs"></path><path d="M40.72 80.51L40.99 80.53L41.24 80.57L41.48 80.61L41.72 80.66L41.94 80.73L42.15 80.8L42.35 80.88L42.53 80.97L42.6 81.01L42.67 81.07L42.76 81.13L42.85 81.2L42.95 81.28L43.05 81.38L43.17 81.48L43.29 81.59L43.42 81.72L43.56 81.85L43.58 80.71L44.66 80.71L44.66 87.12L44.66 87.13L44.62 87.7L44.49 88.21L44.28 88.66L43.98 89.06L43.6 89.39L43.13 89.66L42.57 89.87L41.93 90.02L41.21 90.11L40.39 90.14L39.96 90.13L39.55 90.12L39.17 90.09L38.82 90.05L38.49 89.99L38.18 89.93L37.9 89.85L37.65 89.77L37.42 89.67L37.22 89.56L37.07 89.45L36.92 89.33L36.79 89.2L36.67 89.06L36.57 88.91L36.47 88.74L36.39 88.56L36.33 88.37L36.27 88.17L36.23 87.95L37.35 87.94L37.39 88.09L37.44 88.24L37.49 88.38L37.56 88.5L37.62 88.62L37.7 88.73L37.78 88.83L37.87 88.92L37.96 88.99L38.06 89.06L38.21 89.14L38.37 89.22L38.55 89.28L38.76 89.33L38.98 89.38L39.22 89.42L39.47 89.45L39.75 89.47L40.05 89.48L40.36 89.49L40.69 89.48L41.01 89.46L41.3 89.43L41.58 89.39L41.83 89.33L42.07 89.27L42.29 89.19L42.48 89.09L42.66 88.99L42.82 88.87L42.96 88.74L43.09 88.6L43.21 88.46L43.3 88.3L43.39 88.13L43.46 87.95L43.51 87.75L43.55 87.55L43.57 87.34L43.58 87.12L43.56 85.94L43.34 86.19L43.09 86.4L42.82 86.59L42.51 86.76L42.18 86.9L41.81 87.02L41.42 87.11L41 87.17L40.55 87.21L40.07 87.22L39.67 87.21L39.29 87.19L38.93 87.14L38.58 87.08L38.26 87L37.95 86.9L37.66 86.79L37.39 86.65L37.14 86.5L36.9 86.33L36.8 86.24L36.71 86.15L36.61 86.05L36.53 85.95L36.45 85.85L36.37 85.74L36.3 85.63L36.23 85.52L36.17 85.4L36.11 85.28L36.06 85.15L36.02 85.02L35.98 84.89L35.94 84.75L35.91 84.61L35.89 84.47L35.87 84.32L35.86 84.17L35.85 84.01L35.85 83.86L35.86 83.54L35.89 83.25L35.94 82.97L36.02 82.7L36.12 82.45L36.23 82.21L36.37 81.99L36.53 81.78L36.71 81.59L36.91 81.42L37.15 81.24L37.4 81.08L37.68 80.94L37.97 80.82L38.29 80.72L38.62 80.64L38.98 80.57L39.35 80.53L39.75 80.5L40.16 80.49L40.45 80.5L40.72 80.51ZM38.9 81.38L38.33 81.61L37.84 81.92L37.46 82.3L37.19 82.75L37.03 83.27L36.97 83.86L37.19 85.03L37.83 85.86L38.9 86.36L40.39 86.53L40.76 86.52L41.09 86.49L41.41 86.43L41.71 86.35L41.99 86.25L42.25 86.13L42.5 85.98L42.73 85.82L43.1 85.43L43.36 84.97L43.52 84.43L43.58 83.82L43.58 83.82L43.52 83.26L43.37 82.75L43.11 82.31L42.74 81.92L42.28 81.61L41.72 81.39L41.07 81.25L40.31 81.21L39.56 81.25L38.9 81.38Z" id="a2plfXSTJg"></path><path d="M51 81.4C50.67 81.35 50.36 81.32 50.08 81.32C48.29 81.32 47.39 82.25 47.39 84.11C47.39 84.32 47.39 85.4 47.4 87.33L46.31 87.33L46.3 80.73L47.39 80.72L47.39 81.91C47.42 81.91 47.44 81.91 47.45 81.91C47.63 81.44 47.92 81.09 48.32 80.85C48.75 80.62 49.4 80.51 50.26 80.51C50.44 80.51 50.58 80.51 50.7 80.51C50.82 80.51 50.92 80.51 51 80.52C51 80.58 51 80.87 51 81.4" id="f2NdYQgHq"></path><path d="M56.06 80.53L56.32 80.55L56.58 80.58L56.82 80.62L57.05 80.66L57.28 80.72L57.5 80.78L57.7 80.85L57.9 80.92L58.09 81.01L58.27 81.1L58.45 81.21L58.61 81.32L58.77 81.44L58.91 81.57L59.16 81.82L59.37 82.09L59.55 82.39L59.7 82.71L59.81 83.05L59.89 83.41L59.94 83.8L59.96 84.21L52.18 84.21L52.2 84.48L52.23 84.75L52.3 85L52.38 85.24L52.49 85.46L52.63 85.67L52.79 85.87L52.97 86.06L53.22 86.25L53.48 86.42L53.77 86.57L54.09 86.68L54.43 86.77L54.79 86.84L55.18 86.88L55.59 86.89L56.17 86.87L56.69 86.79L57.15 86.65L57.56 86.46L57.91 86.22L58.2 85.93L58.44 85.58L58.62 85.18L59.8 85.18L59.72 85.42L59.62 85.65L59.5 85.87L59.35 86.08L59.18 86.28L59 86.47L58.78 86.66L58.55 86.83L58.4 86.91L58.26 87L58.1 87.07L57.94 87.14L57.77 87.21L57.6 87.27L57.42 87.32L57.23 87.37L57.04 87.42L56.85 87.46L56.65 87.49L56.45 87.52L56.25 87.54L56.04 87.56L55.82 87.57L55.61 87.57L55.07 87.56L54.56 87.51L54.09 87.42L53.65 87.31L53.23 87.16L52.85 86.98L52.5 86.77L52.18 86.52L51.92 86.27L51.69 86.01L51.5 85.72L51.34 85.41L51.22 85.08L51.13 84.73L51.08 84.36L51.06 83.97L51.08 83.58L51.14 83.22L51.23 82.87L51.35 82.54L51.52 82.24L51.72 81.95L51.96 81.69L52.23 81.45L52.54 81.23L52.87 81.04L53.24 80.88L53.63 80.75L54.06 80.65L54.52 80.57L55 80.53L55.51 80.52L55.79 80.52L56.06 80.53ZM54.81 81.2L54.48 81.25L54.18 81.33L53.89 81.43L53.61 81.55L53.35 81.7L53.11 81.87L52.78 82.21L52.52 82.61L52.32 83.08L52.18 83.61L58.81 83.61L58.75 83.15L58.58 82.71L58.29 82.29L57.88 81.9L57.39 81.57L56.83 81.34L56.21 81.2L55.51 81.15L55.15 81.16L54.81 81.2Z" id="d59XmiVWcV"></path><path d="M74.19 84.66C74.19 87.02 72.18 88.21 68.16 88.21C65.74 88.21 63.99 87.8 62.88 86.99C61.97 86.32 61.51 85.3 61.51 83.94C61.68 83.94 62.97 83.94 63.14 83.94C63.14 86.14 64.81 87.24 68.16 87.24C69.76 87.24 70.92 87.01 71.63 86.55C72.24 86.16 72.54 85.54 72.54 84.69C72.54 83.85 72.13 83.25 71.3 82.91C70.84 82.73 69.7 82.5 67.88 82.23C65.6 81.9 64.12 81.57 63.44 81.24C62.46 80.75 61.97 79.93 61.97 78.77C61.97 77.68 62.39 76.88 63.22 76.35C64.12 75.77 65.66 75.48 67.84 75.48C71.78 75.48 73.75 76.72 73.75 79.2C73.59 79.2 72.28 79.2 72.12 79.2C72.12 77.35 70.65 76.42 67.73 76.42C66.26 76.42 65.19 76.61 64.51 76.98C63.87 77.38 63.55 77.96 63.55 78.73C63.55 79.54 63.96 80.11 64.79 80.44C65.23 80.63 66.52 80.89 68.66 81.22C70.68 81.52 72.04 81.85 72.75 82.23C73.71 82.7 74.19 83.51 74.19 84.66" id="d5BETEgdpH"></path><path d="M83.22 75.48L83.58 75.5L83.93 75.53L84.28 75.58L84.62 75.63L84.95 75.69L85.27 75.75L85.58 75.83L85.89 75.92L86.18 76.02L86.47 76.12L86.75 76.24L87.01 76.36L87.27 76.5L87.53 76.64L87.77 76.79L88 76.96L88.23 77.13L88.44 77.31L88.82 77.66L89.16 78.04L89.45 78.43L89.71 78.85L89.93 79.29L90.11 79.76L90.24 80.24L90.34 80.75L90.4 81.28L90.42 81.83L90.42 82.15L90.4 82.45L90.37 82.75L90.33 83.04L90.27 83.32L90.21 83.6L90.13 83.86L90.04 84.13L89.93 84.38L89.82 84.62L89.69 84.86L89.55 85.09L89.4 85.31L89.23 85.52L89.05 85.73L88.85 85.93L88.65 86.13L88.43 86.31L88.19 86.49L87.95 86.66L90.26 88.18L89.27 89.03L86.88 87.45L86.72 87.52L86.56 87.59L86.39 87.66L86.22 87.72L86.04 87.78L85.85 87.84L85.66 87.89L85.45 87.94L85.25 87.98L85.03 88.02L84.81 88.06L84.58 88.09L84.35 88.12L84.1 88.15L83.85 88.17L83.6 88.19L83.33 88.2L83.06 88.21L82.78 88.22L82.49 88.22L81.76 88.2L81.06 88.15L80.4 88.06L79.76 87.94L79.16 87.78L78.58 87.59L78.04 87.36L77.53 87.1L77.05 86.8L76.61 86.46L76.2 86.1L75.83 85.71L75.51 85.31L75.23 84.88L75 84.42L74.8 83.95L74.65 83.45L74.55 82.94L74.48 82.4L74.46 81.83L74.48 81.26L74.55 80.71L74.65 80.19L74.8 79.68L74.99 79.21L75.23 78.75L75.5 78.32L75.82 77.92L76.19 77.54L76.59 77.18L77.03 76.86L77.51 76.56L78.01 76.3L78.55 76.08L79.12 75.89L79.73 75.74L80.36 75.62L81.03 75.53L81.73 75.48L82.46 75.46L82.84 75.47L83.22 75.48ZM80.9 76.54L80.19 76.68L79.52 76.89L78.89 77.15L78.32 77.47L77.79 77.85L77.32 78.28L76.93 78.76L76.6 79.28L76.35 79.85L76.17 80.46L76.06 81.13L76.03 81.83L76.06 82.52L76.17 83.16L76.35 83.77L76.61 84.33L76.93 84.85L77.33 85.34L77.8 85.78L78.33 86.17L78.91 86.5L79.54 86.77L80.2 86.98L80.92 87.13L81.67 87.22L82.48 87.25L82.88 87.24L83.26 87.22L83.64 87.19L84 87.14L84.36 87.07L84.7 86.99L85.03 86.9L85.35 86.79L85.67 86.67L85.97 86.54L86.26 86.39L86.54 86.23L86.82 86.05L87.08 85.87L87.56 85.42L87.96 84.93L88.29 84.4L88.54 83.82L88.72 83.2L88.83 82.54L88.87 81.83L88.86 81.49L88.83 81.15L88.79 80.82L88.73 80.5L88.65 80.2L88.56 79.91L88.44 79.62L88.31 79.35L88.16 79.08L87.99 78.83L87.8 78.58L87.6 78.35L87.37 78.13L87.12 77.91L86.61 77.52L86.05 77.18L85.44 76.91L84.78 76.69L84.06 76.54L83.29 76.45L82.48 76.42L81.67 76.45L80.9 76.54Z" id="a17NLWCZdv"></path><path d="M102.52 87.89L91.46 87.91L91.46 75.79L92.98 75.77L92.98 86.88L102.54 86.88L102.52 87.9" id="bbB2klJs9"></path></defs><g><g><g><use xlink:href="#a2iOkxikGh" opacity="1" fill="#000000" fill-opacity="0"></use><g><use xlink:href="#a2iOkxikGh" opacity="1" fill-opacity="0" stroke="#000000" stroke-width="1.08" stroke-opacity="1"></use></g></g><g><use xlink:href="#b13ahLxKwL" opacity="1" fill="#000000" fill-opacity="0"></use><g><use xlink:href="#b13ahLxKwL" opacity="1" fill-opacity="0" stroke="#000000" stroke-width="1.08" stroke-opacity="1"></use></g></g><g><use xlink:href="#fbeNawKiE" opacity="1" fill="#000000" fill-opacity="0"></use><g><use xlink:href="#fbeNawKiE" opacity="1" fill-opacity="0" stroke="#000000" stroke-width="1.08" stroke-opacity="1"></use></g></g><g><use xlink:href="#bbXTGVZ3S" opacity="1" fill="#000000" fill-opacity="0"></use><g><use xlink:href="#bbXTGVZ3S" opacity="1" fill-opacity="0" stroke="#000000" stroke-width="1.08" stroke-opacity="1"></use></g></g><g><use xlink:href="#bFOg3rh0" opacity="1" fill="#000000" fill-opacity="0"></use><g><use xlink:href="#bFOg3rh0" opacity="1" fill-opacity="0" stroke="#000000" stroke-width="1.08" stroke-opacity="1"></use></g></g><g><use xlink:href="#aHwlbOvU" opacity="1" fill="#000000" fill-opacity="0"></use><g><use xlink:href="#aHwlbOvU" opacity="1" fill-opacity="0" stroke="#000000" stroke-width="1.08" stroke-opacity="1"></use></g></g><g><use xlink:href="#ed4V7uvBWQ" opacity="1" fill="#000000" fill-opacity="0"></use><g><use xlink:href="#ed4V7uvBWQ" opacity="1" fill-opacity="0" stroke="#000000" stroke-width="0.36" stroke-opacity="1"></use></g></g><g><use xlink:href="#cKXnepbV8" opacity="1" fill="#000000" fill-opacity="0"></use><g><use xlink:href="#cKXnepbV8" opacity="1" fill-opacity="0" stroke="#000000" stroke-width="0.18" stroke-opacity="1"></use></g></g><g><use xlink:href="#a1eWTZLFJR" opacity="1" fill="#000000" fill-opacity="0"></use><g><use xlink:href="#a1eWTZLFJR" opacity="1" fill-opacity="0" stroke="#000000" stroke-width="1.08" stroke-opacity="1"></use></g></g><g><use xlink:href="#ashMTu49" opacity="1" fill="#000000" fill-opacity="1"></use><g><use xlink:href="#ashMTu49" opacity="1" fill-opacity="0" stroke="#000000" stroke-width="1" stroke-opacity="0"></use></g></g><g><use xlink:href="#f4qgItt1Lv" opacity="1" fill="#316192" fill-opacity="1"></use><g><use xlink:href="#f4qgItt1Lv" opacity="1" fill-opacity="0" stroke="#ffffff" stroke-width="1" stroke-opacity="1"></use></g></g><g><use xlink:href="#a2NcVB9gR9" opacity="1" fill="#316192" fill-opacity="1"></use><g><use xlink:href="#a2NcVB9gR9" opacity="1" fill-opacity="0" stroke="#ffffff" stroke-width="1" stroke-opacity="1"></use></g></g><g><use xlink:href="#kYwFX6ZH" opacity="1" fill="#316192" fill-opacity="1"></use><g><use xlink:href="#kYwFX6ZH" opacity="1" fill-opacity="0" stroke="#ffffff" stroke-width="1" stroke-opacity="1"></use></g></g><g><use xlink:href="#ba1dWoZnDK" opacity="1" fill="#316192" fill-opacity="1"></use><g><use xlink:href="#ba1dWoZnDK" opacity="1" fill-opacity="0" stroke="#ffffff" stroke-width="1" stroke-opacity="1"></use></g></g><g><use xlink:href="#b3RSZj0kG3" opacity="1" fill="#316192" fill-opacity="1"></use><g><use xlink:href="#b3RSZj0kG3" opacity="1" fill-opacity="0" stroke="#ffffff" stroke-width="1" stroke-opacity="1"></use></g></g><g><use xlink:href="#aCipT25sI" opacity="1" fill="#316192" fill-opacity="1"></use><g><use xlink:href="#aCipT25sI" opacity="1" fill-opacity="0" stroke="#ffffff" stroke-width="1" stroke-opacity="1"></use></g></g><g><use xlink:href="#dlrHCjBaX" opacity="1" fill="#316192" fill-opacity="1"></use><g><use xlink:href="#dlrHCjBaX" opacity="1" fill-opacity="0" stroke="#ffffff" stroke-width="1" stroke-opacity="1"></use></g></g><g><use xlink:href="#fYGz0UZjv" opacity="1" fill="#ffffff" fill-opacity="1"></use><g><use xlink:href="#fYGz0UZjv" opacity="1" fill-opacity="0" stroke="#ffffff" stroke-width="0.33" stroke-opacity="1"></use></g></g><g><use xlink:href="#bwoKmoxoM" opacity="1" fill="#ffffff" fill-opacity="1"></use><g><use xlink:href="#bwoKmoxoM" opacity="1" fill-opacity="0" stroke="#ffffff" stroke-width="0.17" stroke-opacity="1"></use></g></g><g><use xlink:href="#c2yTzZpqt9" opacity="1" fill="#316192" fill-opacity="1"></use><g><use xlink:href="#c2yTzZpqt9" opacity="1" fill-opacity="0" stroke="#ffffff" stroke-width="1" stroke-opacity="1"></use></g></g><g><use xlink:href="#c11ugnKeQB" opacity="1" fill="#1a1a1a" fill-opacity="1"></use><g><use xlink:href="#c11ugnKeQB" opacity="1" fill-opacity="0" stroke="#000000" stroke-width="1" stroke-opacity="0"></use></g></g><g><use xlink:href="#bkaQhgpLl" opacity="1" fill="#1a1a1a" fill-opacity="1"></use><g><use xlink:href="#bkaQhgpLl" opacity="1" fill-opacity="0" stroke="#000000" stroke-width="1" stroke-opacity="0"></use></g></g><g><use xlink:href="#b1LIj3kB87" opacity="1" fill="#1a1a1a" fill-opacity="1"></use><g><use xlink:href="#b1LIj3kB87" opacity="1" fill-opacity="0" stroke="#000000" stroke-width="1" stroke-opacity="0"></use></g></g><g><use xlink:href="#eR92nonGs" opacity="1" fill="#1a1a1a" fill-opacity="1"></use><g><use xlink:href="#eR92nonGs" opacity="1" fill-opacity="0" stroke="#000000" stroke-width="1" stroke-opacity="0"></use></g></g><g><use xlink:href="#a2plfXSTJg" opacity="1" fill="#1a1a1a" fill-opacity="1"></use><g><use xlink:href="#a2plfXSTJg" opacity="1" fill-opacity="0" stroke="#000000" stroke-width="1" stroke-opacity="0"></use></g></g><g><use xlink:href="#f2NdYQgHq" opacity="1" fill="#1a1a1a" fill-opacity="1"></use><g><use xlink:href="#f2NdYQgHq" opacity="1" fill-opacity="0" stroke="#000000" stroke-width="1" stroke-opacity="0"></use></g></g><g><use xlink:href="#d59XmiVWcV" opacity="1" fill="#1a1a1a" fill-opacity="1"></use><g><use xlink:href="#d59XmiVWcV" opacity="1" fill-opacity="0" stroke="#000000" stroke-width="1" stroke-opacity="0"></use></g></g><g><use xlink:href="#d5BETEgdpH" opacity="1" fill="#316192" fill-opacity="1"></use><g><use xlink:href="#d5BETEgdpH" opacity="1" fill-opacity="0" stroke="#000000" stroke-width="1" stroke-opacity="0"></use></g></g><g><use xlink:href="#a17NLWCZdv" opacity="1" fill="#316192" fill-opacity="1"></use><g><use xlink:href="#a17NLWCZdv" opacity="1" fill-opacity="0" stroke="#000000" stroke-width="1" stroke-opacity="0"></use></g></g><g><use xlink:href="#bbB2klJs9" opacity="1" fill="#316192" fill-opacity="1"></use><g><use xlink:href="#bbB2klJs9" opacity="1" fill-opacity="0" stroke="#000000" stroke-width="1" stroke-opacity="0"></use></g></g></g></g></svg>