<?xml version="1.0" encoding="UTF-8" standalone="no"?>
<!DOCTYPE svg PUBLIC "-//W3C//DTD SVG 1.1//EN" "http://www.w3.org/Graphics/SVG/1.1/DTD/svg11.dtd">
<svg version="1.1" xmlns="http://www.w3.org/2000/svg" xmlns:xlink="http://www.w3.org/1999/xlink" preserveAspectRatio="xMidYMid meet" viewBox="0 0 110 110" width="110" height="110"><defs><path d="M52.34 75.42C51.98 85.68 52.92 93.83 54.18 96.33C55.46 98.84 59.63 102.56 68.96 100.98C76.76 99.66 80.33 97.1 81.56 91.44C82.46 87.27 83.72 78.69 83.94 76.32" id="a7WqGLuZ7"></path><path d="M52.34 75.42C51.98 85.68 52.92 93.83 54.18 96.33C55.46 98.84 59.63 102.56 68.96 100.98C76.76 99.66 80.33 97.1 81.56 91.44C82.46 87.27 83.72 78.69 83.94 76.32" id="d4JEDo3l3P"></path><path d="M45.63 22.83C45.63 22.83 2.66 9.15 4.62 40.25C5.04 46.88 17.33 90.33 31.11 77.21C39.45 71.04 40.7 68.64 40.7 68.64" id="c8UuYCfhn"></path><path d="M45.63 22.83C45.63 22.83 2.66 9.15 4.62 40.25C5.04 46.88 17.33 90.33 31.11 77.21C39.45 71.04 40.7 68.64 40.7 68.64" id="a13U2WsLea"></path><path d="M65.43 20.33C63.98 20.69 88.94 13.1 103.11 27.47C108.12 32.54 102.32 53.27 88.43 69.59" id="b19epQB6YK"></path><path d="M65.43 20.33C63.98 20.69 88.94 13.1 103.11 27.47C108.12 32.54 102.32 53.27 88.43 69.59" id="b7NAsCH8e1"></path><path d="M88.43 66.24C88.43 66.24 89.33 69.77 102.48 67.62C108.26 66.68 104.78 73.62 98.94 75.77C94.14 77.54 83.39 77.99 83.21 75.54C82.76 69.26 88.88 67.82 88.43 66.24C88.04 64.82 85.29 66.78 83.49 63.3C81.92 60.27 61.83 37.02 89.06 40.47C90.05 40.31 81.96 19.97 56.49 19.64C31.02 19.31 31.86 44.45 31.86 44.45" id="d2gp6jlue"></path><path d="M88.43 66.24C88.43 66.24 89.33 69.77 102.48 67.62C108.26 66.68 104.78 73.62 98.94 75.77C94.14 77.54 83.39 77.99 83.21 75.54C82.76 69.26 88.88 67.82 88.43 66.24C88.04 64.82 85.29 66.78 83.49 63.3C81.92 60.27 61.83 37.02 89.06 40.47C90.05 40.31 81.96 19.97 56.49 19.64C31.02 19.31 31.86 44.45 31.86 44.45" id="aJMtnVKLf"></path><path d="M36.87 79.56C42.77 80.42 47.43 81.8 53.15 76.98C54.74 75.21 53.13 71.63 50.96 70.91C49.89 70.56 48.48 70.13 46.68 71.75C43.13 74.88 44.18 75.44 37.07 76.59C29.9 77.76 34.11 78.92 36.87 79.56Z" id="b1BjAuhMJ7"></path><path d="M36.87 79.56C42.77 80.42 47.43 81.8 53.15 76.98C54.74 75.21 53.13 71.63 50.96 70.91C49.89 70.56 48.48 70.13 46.68 71.75C43.13 74.88 44.18 75.44 37.07 76.59C29.9 77.76 34.11 78.92 36.87 79.56Z" id="aYidK0mt7"></path><path d="M46.44 71.69C46.08 69.84 47.21 67.64 48.41 65.07C50.22 61.2 54.41 57.35 51.06 45.11C48.57 35.99 31.86 43.2 31.86 44.45C31.85 45.68 32.61 50.72 31.58 56.58C30.23 64.23 37.73 70.7 46.35 70.04" id="b1WRRCnWJP"></path><path d="M46.44 71.69C46.08 69.84 47.21 67.64 48.41 65.07C50.22 61.2 54.41 57.35 51.06 45.11C48.57 35.99 31.86 43.2 31.86 44.45C31.85 45.68 32.61 50.72 31.58 56.58C30.23 64.23 37.73 70.7 46.35 70.04" id="awnDL4wht"></path><path d="M47.43 44.81C47.51 44.39 46.46 43.92 45.08 43.77C43.71 43.62 42.54 43.83 42.47 44.27C42.47 44.27 42.47 44.27 42.47 44.27C43.13 45.29 43.91 45.86 44.82 45.96C46.19 46.11 47.36 45.23 47.43 44.81Z" id="a48EvZA6mQ"></path><path d="M47.43 44.81C47.51 44.39 46.46 43.92 45.08 43.77C43.71 43.62 42.54 43.83 42.47 44.27C42.47 44.27 42.47 44.27 42.47 44.27C43.13 45.29 43.91 45.86 44.82 45.96C46.19 46.11 47.36 45.23 47.43 44.81Z" id="euaMv9tlZ"></path><path d="M79.19 43.95C79.13 43.53 80.18 43.07 81.54 42.9C82.91 42.75 84.08 42.98 84.15 43.4C84.15 43.4 84.15 43.4 84.15 43.4C83.51 44.43 82.73 45 81.81 45.09C80.43 45.26 79.26 44.37 79.19 43.95Z" id="b6hVnpCiwe"></path><path d="M79.19 43.95C79.13 43.53 80.18 43.07 81.54 42.9C82.91 42.75 84.08 42.98 84.15 43.4C84.15 43.4 84.15 43.4 84.15 43.4C83.51 44.43 82.73 45 81.81 45.09C80.43 45.26 79.26 44.37 79.19 43.95Z" id="as7axj24K"></path><path d="M89.06 40.47C89.28 43.79 88.16 46.05 88.01 49.58C87.8 54.71 91.1 60.57 86.13 66.45" id="f45kZlaJo4"></path><path d="M89.06 40.47C89.28 43.79 88.16 46.05 88.01 49.58C87.8 54.71 91.1 60.57 86.13 66.45" id="eiIhHLUwt"></path><path d="M46.23 69.84L42.65 74.01L36.45 73.56L38.06 69.99L46.23 69.84Z" id="chDgr2he"></path><path d="M46.23 69.84L42.65 74.01L36.45 73.56L38.06 69.99L46.23 69.84Z" id="i6A4qfCqd"></path><path d="M100.52 29.34C87.92 16.59 66.11 22.62 65.75 22.79C65.73 22.79 65.64 22.8 65.63 22.8C63.23 22.4 60.56 22.17 57.54 22.13C52.05 22.05 47.9 23.27 44.73 25.17C44.73 25.17 5.84 12.47 7.65 41.13C8.03 47.24 18.68 87.29 31.38 75.18C36.02 70.76 40.5 67.02 40.5 67.02C42.74 68.19 45.39 68.79 48.2 68.58C48.21 68.57 48.39 68.45 48.41 68.43C48.35 68.99 48.38 69.51 48.5 70.16C45.23 73.05 46.19 73.56 39.65 74.63C33.03 75.71 36.92 77.63 39.45 78.14C42.53 78.74 49.65 79.61 54.47 74.27C54.44 74.33 54.29 74.82 54.27 74.88C55.55 75.69 56.45 80.18 56.3 84.23C56.15 88.29 56.06 91.08 57.06 93.26C58.07 95.43 59.07 100.34 67.67 98.87C74.85 97.65 78.59 94.49 79.1 89.22C79.47 85.47 80.3 86.03 80.34 82.67C80.42 82.52 80.96 81.24 81.02 81.08C81.78 76.01 81.14 74.36 85.56 75.12C85.67 75.14 86.54 75.2 86.64 75.2C89.9 75.32 94.16 74.79 96.66 73.86C102.05 71.88 105.24 68.57 99.93 69.44C99.93 69.44 99.93 69.44 99.93 69.44C93.03 68.76 88.71 68.34 86.97 68.18C99.78 53.12 105.12 34.02 100.52 29.34Z" id="o3629uVM1L"></path><path d="M100.52 29.34C87.92 16.59 66.11 22.62 65.75 22.79C65.73 22.79 65.64 22.8 65.63 22.8C63.23 22.4 60.56 22.17 57.54 22.13C52.05 22.05 47.9 23.27 44.73 25.17C44.73 25.17 5.84 12.47 7.65 41.13C8.03 47.24 18.68 87.29 31.38 75.18C36.02 70.76 40.5 67.02 40.5 67.02C42.74 68.19 45.39 68.79 48.2 68.58C48.21 68.57 48.39 68.45 48.41 68.43C48.35 68.99 48.38 69.51 48.5 70.16C45.23 73.05 46.19 73.56 39.65 74.63C33.03 75.71 36.92 77.63 39.45 78.14C42.53 78.74 49.65 79.61 54.47 74.27C54.44 74.33 54.29 74.82 54.27 74.88C55.55 75.69 56.45 80.18 56.3 84.23C56.15 88.29 56.06 91.08 57.06 93.26C58.07 95.43 59.07 100.34 67.67 98.87C74.85 97.65 78.59 94.49 79.1 89.22C79.47 85.47 80.3 86.03 80.34 82.67C80.42 82.52 80.96 81.24 81.02 81.08C81.78 76.01 81.14 74.36 85.56 75.12C85.67 75.14 86.54 75.2 86.64 75.2C89.9 75.32 94.16 74.79 96.66 73.86C102.05 71.88 105.24 68.57 99.93 69.44C99.93 69.44 99.93 69.44 99.93 69.44C93.03 68.76 88.71 68.34 86.97 68.18C99.78 53.12 105.12 34.02 100.52 29.34Z" id="a2uT054TO"></path><path d="M54.98 72.36C54.65 81.81 55.07 91.34 56.24 93.65C57.41 95.96 59.9 100.46 68.51 99C75.68 97.79 78.3 95.42 79.43 90.21C80.27 86.37 81.87 75.72 82.08 73.55" id="a9lRL3Tu4V"></path><path d="M53.87 73.18C53.54 82.63 53.96 92.15 55.13 94.46C56.3 96.77 58.79 101.27 67.4 99.82C74.57 98.6 77.19 96.23 78.32 91.03C79.16 87.19 80.76 76.54 80.97 74.36" id="avyd18A1D"></path><path d="M44.67 24.96C44.67 24.96 5.75 12.35 7.56 41.01C7.95 47.12 18.6 87.17 31.29 75.06C35.93 70.64 40.13 67.17 40.13 67.17" id="b47uNPf7i"></path><path d="M44.67 24.96C44.67 24.96 5.75 12.35 7.56 41.01C7.95 47.12 18.6 87.17 31.29 75.06C35.93 70.64 40.13 67.17 40.13 67.17" id="f1nz8XZDZU"></path><path d="M65.7 22.65C64.35 23 87.36 15.99 100.43 29.22C105.05 33.9 99.69 53.01 86.9 68.06" id="b7vbn61BJ"></path><path d="M65.7 22.65C64.35 23 87.36 15.99 100.43 29.22C105.05 33.9 99.69 53.01 86.9 68.06" id="e1zvHve92g"></path><path d="M86.9 68.06C86.9 68.06 87.72 71.31 99.86 69.32C105.17 68.46 101.97 71.76 96.57 73.74C92.16 75.38 82.25 75.78 82.08 73.55C81.66 67.74 87.3 69.51 86.9 68.06C86.52 66.75 84 65.46 82.34 62.27C80.88 59.46 62.39 38.04 87.47 41.22C88.38 41.07 80.93 22.32 57.45 22.01C33.99 21.71 34.76 44.88 34.76 44.88" id="a1dAGAI20g"></path><path d="M86.9 68.06C86.9 68.06 87.72 71.31 99.86 69.32C105.17 68.46 101.97 71.76 96.57 73.74C92.16 75.38 82.25 75.78 82.08 73.55C81.66 67.74 87.3 69.51 86.9 68.06C86.52 66.75 84 65.46 82.34 62.27C80.88 59.46 62.39 38.04 87.47 41.22C88.38 41.07 80.93 22.32 57.45 22.01C33.99 21.71 34.76 44.88 34.76 44.88" id="h2NGHmKesU"></path><path d="M39.38 78.02C42.45 78.63 49.56 79.49 54.38 74.15C55.85 72.53 54.36 69.93 52.35 69.27C51.38 68.96 50.09 68.55 48.41 70.04C48.41 70.04 48.41 70.04 48.41 70.04C46.88 72.3 43.92 73.8 39.56 74.51C32.94 75.59 36.83 77.51 39.38 78.02Z" id="m2wMDy5RBj"></path><path d="M39.38 78.02C42.45 78.63 49.56 79.49 54.38 74.15C55.85 72.53 54.36 69.93 52.35 69.27C51.38 68.96 50.09 68.55 48.41 70.04C48.41 70.04 48.41 70.04 48.41 70.04C46.88 72.3 43.92 73.8 39.56 74.51C32.94 75.59 36.83 77.51 39.38 78.02Z" id="e3pY66Rmwv"></path><path d="M48.2 69.99C47.87 68.28 48.9 66.26 50.01 63.89C51.68 60.33 55.53 56.78 52.46 45.48C50.16 37.08 34.77 43.74 34.76 44.88C34.74 46.02 35.45 50.66 34.5 56.06C33.26 63.11 40.16 69.08 48.11 68.46" id="b2TxsUuUTA"></path><path d="M48.2 69.99C47.87 68.28 48.9 66.26 50.01 63.89C51.68 60.33 55.53 56.78 52.46 45.48C50.16 37.08 34.77 43.74 34.76 44.88C34.74 46.02 35.45 50.66 34.5 56.06C33.26 63.11 40.16 69.08 48.11 68.46" id="b4dC5XKSZB"></path><path d="M49.11 45.21C49.17 44.82 48.21 44.4 46.95 44.25C45.68 44.12 44.6 44.33 44.54 44.7C44.54 44.7 44.54 44.7 44.54 44.7C45.14 45.66 45.86 46.19 46.7 46.28C47.96 46.41 49.04 45.6 49.11 45.21Z" id="a2TcCdWRLy"></path><path d="M49.11 45.21C49.17 44.82 48.21 44.4 46.95 44.25C45.68 44.12 44.6 44.33 44.54 44.7C44.54 44.7 44.54 44.7 44.54 44.7C45.14 45.66 45.86 46.19 46.7 46.28C47.96 46.41 49.04 45.6 49.11 45.21Z" id="b6ebxVJXBs"></path><path d="M78.38 44.42C78.32 44.03 79.28 43.61 80.55 43.46C81.81 43.32 82.89 43.53 82.95 43.92C82.95 43.92 82.95 43.92 82.95 43.92C82.35 44.87 81.63 45.39 80.79 45.48C79.53 45.62 78.45 44.81 78.38 44.42Z" id="cfUV0Ry9j"></path><path d="M78.38 44.42C78.32 44.03 79.28 43.61 80.55 43.46C81.81 43.32 82.89 43.53 82.95 43.92C82.95 43.92 82.95 43.92 82.95 43.92C82.35 44.87 81.63 45.39 80.79 45.48C79.53 45.62 78.45 44.81 78.38 44.42Z" id="a3LTpGTXe"></path><path d="M87.47 41.22C87.68 44.28 86.64 46.35 86.51 49.61C86.31 54.33 89.36 59.75 84.78 65.16" id="a5TKHLVqH"></path><path d="M87.47 41.22C87.68 44.28 86.64 46.35 86.51 49.61C86.31 54.33 89.36 59.75 84.78 65.16" id="a6xCmY03x"></path></defs><g><g><g><use xlink:href="#a7WqGLuZ7" opacity="1" fill="#000000" fill-opacity="0"></use><g><use xlink:href="#a7WqGLuZ7" opacity="1" fill-opacity="0" stroke="#000000" stroke-width="1" stroke-opacity="0"></use></g></g><g><use xlink:href="#d4JEDo3l3P" opacity="1" fill="#000000" fill-opacity="0"></use><g><use xlink:href="#d4JEDo3l3P" opacity="1" fill-opacity="0" stroke="#000000" stroke-width="1.08" stroke-opacity="1"></use></g></g><g><use xlink:href="#c8UuYCfhn" opacity="1" fill="#000000" fill-opacity="0"></use><g><use xlink:href="#c8UuYCfhn" opacity="1" fill-opacity="0" stroke="#000000" stroke-width="1" stroke-opacity="0"></use></g></g><g><use xlink:href="#a13U2WsLea" opacity="1" fill="#000000" fill-opacity="0"></use><g><use xlink:href="#a13U2WsLea" opacity="1" fill-opacity="0" stroke="#000000" stroke-width="1.08" stroke-opacity="1"></use></g></g><g><use xlink:href="#b19epQB6YK" opacity="1" fill="#000000" fill-opacity="0"></use><g><use xlink:href="#b19epQB6YK" opacity="1" fill-opacity="0" stroke="#000000" stroke-width="1" stroke-opacity="0"></use></g></g><g><use xlink:href="#b7NAsCH8e1" opacity="1" fill="#000000" fill-opacity="0"></use><g><use xlink:href="#b7NAsCH8e1" opacity="1" fill-opacity="0" stroke="#000000" stroke-width="1.08" stroke-opacity="1"></use></g></g><g><use xlink:href="#d2gp6jlue" opacity="1" fill="#000000" fill-opacity="0"></use><g><use xlink:href="#d2gp6jlue" opacity="1" fill-opacity="0" stroke="#000000" stroke-width="1" stroke-opacity="0"></use></g></g><g><use xlink:href="#aJMtnVKLf" opacity="1" fill="#000000" fill-opacity="0"></use><g><use xlink:href="#aJMtnVKLf" opacity="1" fill-opacity="0" stroke="#000000" stroke-width="1.08" stroke-opacity="1"></use></g></g><g><use xlink:href="#b1BjAuhMJ7" opacity="1" fill="#000000" fill-opacity="0"></use><g><use xlink:href="#b1BjAuhMJ7" opacity="1" fill-opacity="0" stroke="#000000" stroke-width="1" stroke-opacity="0"></use></g></g><g><use xlink:href="#aYidK0mt7" opacity="1" fill="#000000" fill-opacity="0"></use><g><use xlink:href="#aYidK0mt7" opacity="1" fill-opacity="0" stroke="#000000" stroke-width="1.08" stroke-opacity="1"></use></g></g><g><use xlink:href="#b1WRRCnWJP" opacity="1" fill="#000000" fill-opacity="0"></use><g><use xlink:href="#b1WRRCnWJP" opacity="1" fill-opacity="0" stroke="#000000" stroke-width="1" stroke-opacity="0"></use></g></g><g><use xlink:href="#awnDL4wht" opacity="1" fill="#000000" fill-opacity="0"></use><g><use xlink:href="#awnDL4wht" opacity="1" fill-opacity="0" stroke="#000000" stroke-width="1.08" stroke-opacity="1"></use></g></g><g><use xlink:href="#a48EvZA6mQ" opacity="1" fill="#000000" fill-opacity="0"></use><g><use xlink:href="#a48EvZA6mQ" opacity="1" fill-opacity="0" stroke="#000000" stroke-width="1" stroke-opacity="0"></use></g></g><g><use xlink:href="#euaMv9tlZ" opacity="1" fill="#000000" fill-opacity="0"></use><g><use xlink:href="#euaMv9tlZ" opacity="1" fill-opacity="0" stroke="#000000" stroke-width="0.36" stroke-opacity="1"></use></g></g><g><use xlink:href="#b6hVnpCiwe" opacity="1" fill="#000000" fill-opacity="0"></use><g><use xlink:href="#b6hVnpCiwe" opacity="1" fill-opacity="0" stroke="#000000" stroke-width="1" stroke-opacity="0"></use></g></g><g><use xlink:href="#as7axj24K" opacity="1" fill="#000000" fill-opacity="0"></use><g><use xlink:href="#as7axj24K" opacity="1" fill-opacity="0" stroke="#000000" stroke-width="0.18" stroke-opacity="1"></use></g></g><g><use xlink:href="#f45kZlaJo4" opacity="1" fill="#000000" fill-opacity="0"></use><g><use xlink:href="#f45kZlaJo4" opacity="1" fill-opacity="0" stroke="#000000" stroke-width="1" stroke-opacity="0"></use></g></g><g><use xlink:href="#eiIhHLUwt" opacity="1" fill="#000000" fill-opacity="0"></use><g><use xlink:href="#eiIhHLUwt" opacity="1" fill-opacity="0" stroke="#000000" stroke-width="1.08" stroke-opacity="1"></use></g></g><g><use xlink:href="#chDgr2he" opacity="1" fill="#000000" fill-opacity="1"></use><g><use xlink:href="#chDgr2he" opacity="1" fill-opacity="0" stroke="#000000" stroke-width="1" stroke-opacity="0"></use></g></g><g><use xlink:href="#i6A4qfCqd" opacity="1" fill="#000000" fill-opacity="0"></use><g><use xlink:href="#i6A4qfCqd" opacity="1" fill-opacity="0" stroke="#000000" stroke-width="1" stroke-opacity="0"></use></g></g><g><use xlink:href="#o3629uVM1L" opacity="1" fill="#316192" fill-opacity="1"></use><g><use xlink:href="#o3629uVM1L" opacity="1" fill-opacity="0" stroke="#000000" stroke-width="1" stroke-opacity="0"></use></g></g><g><use xlink:href="#a2uT054TO" opacity="1" fill="#000000" fill-opacity="0"></use><g><use xlink:href="#a2uT054TO" opacity="1" fill-opacity="0" stroke="#ffffff" stroke-width="1" stroke-opacity="1"></use></g></g><g><use xlink:href="#a9lRL3Tu4V" opacity="1" fill="#316192" fill-opacity="1"></use><g><use xlink:href="#a9lRL3Tu4V" opacity="1" fill-opacity="0" stroke="#000000" stroke-width="1" stroke-opacity="0"></use></g></g><g><use xlink:href="#avyd18A1D" opacity="1" fill="#000000" fill-opacity="0"></use><g><use xlink:href="#avyd18A1D" opacity="1" fill-opacity="0" stroke="#ffffff" stroke-width="1" stroke-opacity="1"></use></g></g><g><use xlink:href="#b47uNPf7i" opacity="1" fill="#316192" fill-opacity="1"></use><g><use xlink:href="#b47uNPf7i" opacity="1" fill-opacity="0" stroke="#000000" stroke-width="1" stroke-opacity="0"></use></g></g><g><use xlink:href="#f1nz8XZDZU" opacity="1" fill="#000000" fill-opacity="0"></use><g><use xlink:href="#f1nz8XZDZU" opacity="1" fill-opacity="0" stroke="#ffffff" stroke-width="1" stroke-opacity="1"></use></g></g><g><use xlink:href="#b7vbn61BJ" opacity="1" fill="#316192" fill-opacity="1"></use><g><use xlink:href="#b7vbn61BJ" opacity="1" fill-opacity="0" stroke="#000000" stroke-width="1" stroke-opacity="0"></use></g></g><g><use xlink:href="#e1zvHve92g" opacity="1" fill="#000000" fill-opacity="0"></use><g><use xlink:href="#e1zvHve92g" opacity="1" fill-opacity="0" stroke="#ffffff" stroke-width="1" stroke-opacity="1"></use></g></g><g><use xlink:href="#a1dAGAI20g" opacity="1" fill="#316192" fill-opacity="1"></use><g><use xlink:href="#a1dAGAI20g" opacity="1" fill-opacity="0" stroke="#000000" stroke-width="1" stroke-opacity="0"></use></g></g><g><use xlink:href="#h2NGHmKesU" opacity="1" fill="#000000" fill-opacity="0"></use><g><use xlink:href="#h2NGHmKesU" opacity="1" fill-opacity="0" stroke="#ffffff" stroke-width="1" stroke-opacity="1"></use></g></g><g><use xlink:href="#m2wMDy5RBj" opacity="1" fill="#316192" fill-opacity="1"></use><g><use xlink:href="#m2wMDy5RBj" opacity="1" fill-opacity="0" stroke="#000000" stroke-width="1" stroke-opacity="0"></use></g></g><g><use xlink:href="#e3pY66Rmwv" opacity="1" fill="#000000" fill-opacity="0"></use><g><use xlink:href="#e3pY66Rmwv" opacity="1" fill-opacity="0" stroke="#ffffff" stroke-width="1" stroke-opacity="1"></use></g></g><g><use xlink:href="#b2TxsUuUTA" opacity="1" fill="#316192" fill-opacity="1"></use><g><use xlink:href="#b2TxsUuUTA" opacity="1" fill-opacity="0" stroke="#000000" stroke-width="1" stroke-opacity="0"></use></g></g><g><use xlink:href="#b4dC5XKSZB" opacity="1" fill="#000000" fill-opacity="0"></use><g><use xlink:href="#b4dC5XKSZB" opacity="1" fill-opacity="0" stroke="#ffffff" stroke-width="1" stroke-opacity="1"></use></g></g><g><use xlink:href="#a2TcCdWRLy" opacity="1" fill="#ffffff" fill-opacity="1"></use><g><use xlink:href="#a2TcCdWRLy" opacity="1" fill-opacity="0" stroke="#000000" stroke-width="1" stroke-opacity="0"></use></g></g><g><use xlink:href="#b6ebxVJXBs" opacity="1" fill="#000000" fill-opacity="0"></use><g><use xlink:href="#b6ebxVJXBs" opacity="1" fill-opacity="0" stroke="#ffffff" stroke-width="0.33" stroke-opacity="1"></use></g></g><g><use xlink:href="#cfUV0Ry9j" opacity="1" fill="#ffffff" fill-opacity="1"></use><g><use xlink:href="#cfUV0Ry9j" opacity="1" fill-opacity="0" stroke="#000000" stroke-width="1" stroke-opacity="0"></use></g></g><g><use xlink:href="#a3LTpGTXe" opacity="1" fill="#000000" fill-opacity="0"></use><g><use xlink:href="#a3LTpGTXe" opacity="1" fill-opacity="0" stroke="#ffffff" stroke-width="0.17" stroke-opacity="1"></use></g></g><g><use xlink:href="#a5TKHLVqH" opacity="1" fill="#316192" fill-opacity="1"></use><g><use xlink:href="#a5TKHLVqH" opacity="1" fill-opacity="0" stroke="#000000" stroke-width="1" stroke-opacity="0"></use></g></g><g><use xlink:href="#a6xCmY03x" opacity="1" fill="#000000" fill-opacity="0"></use><g><use xlink:href="#a6xCmY03x" opacity="1" fill-opacity="0" stroke="#ffffff" stroke-width="1" stroke-opacity="1"></use></g></g></g></g></svg>