<?xml version="1.0" encoding="UTF-8" standalone="no"?>
<!DOCTYPE svg PUBLIC "-//W3C//DTD SVG 1.1//EN" "http://www.w3.org/Graphics/SVG/1.1/DTD/svg11.dtd">
<svg version="1.1" xmlns="http://www.w3.org/2000/svg" xmlns:xlink="http://www.w3.org/1999/xlink" preserveAspectRatio="xMidYMid meet" viewBox="0 0 100 100" width="150" height="150"><defs><path d="M45.91 43.13C45.67 49.97 46.3 55.4 47.14 57.07C47.99 58.74 50.77 61.22 56.99 60.17C62.19 59.29 64.57 57.58 65.39 53.81C65.99 51.03 66.83 45.31 66.98 43.73" id="a2iOkxikGh"></path><path d="M41.44 8.07C41.44 8.07 12.79 -1.05 14.1 19.68C14.38 24.1 22.57 53.07 31.76 44.32C37.32 40.21 38.15 38.61 38.15 38.61" id="b13ahLxKwL"></path><path d="M54.64 6.4C53.67 6.64 70.31 1.58 79.76 11.16C83.1 14.54 79.23 28.36 69.97 39.24" id="fbeNawKiE"></path><path d="M69.97 37.01C69.97 37.01 70.57 39.36 79.34 37.93C83.19 37.3 80.87 41.93 76.98 43.36C73.78 44.54 66.61 44.84 66.49 43.21C66.19 39.02 70.27 38.06 69.97 37.01C69.71 36.06 67.88 37.37 66.68 35.05C65.63 33.03 52.24 17.53 70.39 19.83C71.05 19.72 65.66 6.16 48.68 5.94C31.7 5.72 32.26 22.48 32.26 22.48" id="bbXTGVZ3S"></path><path d="M35.73 43.91C30.95 44.69 33.76 45.46 35.6 45.89C39.53 46.46 42.64 47.38 46.45 44.17C47.51 42.99 46.44 40.6 44.99 40.12C44.28 39.89 43.34 39.6 42.14 40.68C39.77 42.77 40.47 43.14 35.73 43.91Z" id="bFOg3rh0"></path><path d="M41.98 40.64C41.74 39.41 42.49 37.94 43.29 36.23C44.5 33.65 47.29 31.08 45.06 22.92C43.4 16.84 32.26 21.65 32.26 22.48C32.25 23.3 32.76 26.66 32.07 30.57C31.17 35.67 36.17 39.98 41.92 39.54" id="aHwlbOvU"></path><path d="M40.9 23.49C41.81 23.59 42.59 23 42.64 22.72C42.69 22.44 41.99 22.13 41.07 22.03C40.16 21.93 39.38 22.07 39.33 22.36C39.33 22.36 39.33 22.36 39.33 22.36C39.77 23.04 40.29 23.42 40.9 23.49Z" id="ed4V7uvBWQ"></path><path d="M65.56 22.91C64.64 23.02 63.86 22.43 63.81 22.15C63.77 21.87 64.47 21.56 65.38 21.45C66.29 21.35 67.07 21.5 67.12 21.78C67.12 21.78 67.12 21.78 67.12 21.78C66.69 22.47 66.17 22.85 65.56 22.91Z" id="cKXnepbV8"></path><path d="M70.39 19.83C70.54 22.04 69.79 23.55 69.69 25.9C69.55 29.32 71.75 33.23 68.44 37.15" id="a1eWTZLFJR"></path><path d="M36.39 39.51L41.84 39.41L39.45 42.19L35.32 41.89L36.39 39.51Z" id="ashMTu49"></path><path d="M69 38.3C77.54 28.26 81.1 15.53 78.03 12.41C69.63 3.91 55.09 7.93 54.85 8.04C54.84 8.04 54.78 8.05 54.77 8.05C53.17 7.78 51.39 7.63 49.38 7.6C45.72 7.55 42.95 8.36 40.84 9.63C40.84 9.63 14.91 1.16 16.12 20.27C16.37 24.34 23.47 51.04 31.94 42.97C35.03 40.02 38.02 37.53 38.02 37.53C39.51 38.31 41.28 38.71 43.15 38.57C43.16 38.56 43.28 38.48 43.29 38.47C43.25 38.84 43.27 39.19 43.35 39.62C41.17 41.55 41.81 41.89 37.45 42.6C33.04 43.32 35.63 44.6 37.32 44.94C39.37 45.34 44.12 45.92 47.33 42.36C47.31 42.4 47.21 42.73 47.2 42.77C48.05 43.31 48.65 46.3 48.55 49C48.45 51.71 48.39 53.57 49.06 55.02C49.73 56.47 50.4 59.74 56.13 58.76C60.92 57.95 63.41 55.84 63.75 52.33C64 49.83 64.55 50.2 64.58 47.96C64.63 47.86 64.99 47.01 65.03 46.9C65.54 43.52 65.11 42.42 68.06 42.93C68.13 42.94 68.71 42.98 68.78 42.98C70.95 43.06 73.79 42.71 75.46 42.09C79.05 40.77 81.18 38.56 77.64 39.14C77.64 39.14 77.64 39.14 77.64 39.14C73.04 38.69 70.16 38.41 69 38.3Z" id="f4qgItt1Lv"></path><path d="M47.67 41.09C47.45 47.39 47.73 53.74 48.51 55.28C49.29 56.82 50.95 59.82 56.69 58.85C61.47 58.04 63.22 56.46 63.97 52.99C64.53 50.43 65.6 43.33 65.74 41.88" id="a2NcVB9gR9"></path><path d="M40.8 9.49C40.8 9.49 14.85 1.08 16.06 20.19C16.32 24.26 23.42 50.96 31.88 42.89C34.97 39.94 37.77 37.63 37.77 37.63" id="kYwFX6ZH"></path><path d="M54.82 7.95C53.92 8.18 69.26 3.51 77.97 12.33C81.05 15.45 77.48 28.19 68.95 38.22" id="ba1dWoZnDK"></path><path d="M68.95 38.22C68.95 38.22 69.5 40.39 77.59 39.06C81.13 38.49 79 40.69 75.4 42.01C72.46 43.1 65.85 43.37 65.74 41.88C65.46 38.01 69.22 39.19 68.95 38.22C68.7 37.35 67.02 36.49 65.91 34.36C64.94 32.49 52.61 18.21 69.33 20.33C69.94 20.23 64.97 7.73 49.32 7.52C33.68 7.32 34.19 22.77 34.19 22.77" id="b3RSZj0kG3"></path><path d="M37.39 42.52C32.98 43.24 35.57 44.52 37.27 44.86C39.32 45.27 44.06 45.84 47.27 42.28C48.25 41.2 47.26 39.47 45.92 39.03C45.27 38.82 44.41 38.55 43.29 39.54C43.29 39.54 43.29 39.54 43.29 39.54C42.27 41.05 40.3 42.05 37.39 42.52Z" id="aCipT25sI"></path><path d="M43.15 39.51C42.93 38.37 43.62 37.02 44.36 35.44C45.47 33.07 48.04 30.7 45.99 23.17C44.46 17.57 34.2 22.01 34.19 22.77C34.18 23.53 34.65 26.62 34.02 30.22C33.19 34.92 37.79 38.9 43.09 38.49" id="dlrHCjBaX"></path><path d="M42.15 23.7C42.99 23.79 43.71 23.25 43.76 22.99C43.8 22.73 43.16 22.45 42.32 22.35C41.47 22.26 40.75 22.4 40.71 22.65C40.71 22.65 40.71 22.65 40.71 22.65C41.11 23.29 41.59 23.64 42.15 23.7Z" id="fYGz0UZjv"></path><path d="M64.88 23.17C64.04 23.26 63.32 22.72 63.27 22.46C63.23 22.2 63.87 21.92 64.72 21.82C65.56 21.73 66.28 21.87 66.32 22.13C66.32 22.13 66.32 22.13 66.32 22.13C65.92 22.76 65.44 23.11 64.88 23.17Z" id="bwoKmoxoM"></path><path d="M69.33 20.33C69.47 22.37 68.78 23.75 68.69 25.92C68.56 29.07 70.59 32.68 67.54 36.29" id="c2yTzZpqt9"></path><path d="M8.99 70.43L9.38 70.51L9.75 70.62L10.08 70.76L10.38 70.94L10.66 71.14L10.9 71.37L11.11 71.63L11.27 71.91L11.4 72.21L11.5 72.54L11.55 72.9L11.57 73.27L11.57 73.27L11.55 73.64L11.49 73.99L11.38 74.32L11.24 74.63L11.05 74.91L10.82 75.16L10.55 75.4L10.25 75.6L9.91 75.77L9.54 75.92L9.14 76.03L8.71 76.1L8.25 76.15L7.76 76.17L3.04 76.17L3.06 80.46L1.77 80.47L1.77 70.39L8.12 70.37L8.57 70.39L8.99 70.43ZM7.47 75.37L8.7 75.24L9.58 74.85L10.1 74.21L10.28 73.31L10.12 72.38L9.64 71.72L8.84 71.32L7.72 71.19L3.05 71.17L3.05 75.37L7.47 75.37Z" id="b3lhrjJ6ls"></path><path d="M17.97 73.78L18.66 73.98L19.27 74.26L19.78 74.63L20.17 75.02L20.47 75.47L20.68 75.97L20.81 76.54L20.85 77.16L20.81 77.77L20.68 78.33L20.47 78.84L20.17 79.29L19.79 79.68L19.27 80.04L18.66 80.33L17.97 80.53L17.19 80.65L16.32 80.69L15.9 80.68L15.5 80.66L15.12 80.61L14.76 80.54L14.42 80.46L14.11 80.35L13.81 80.22L13.53 80.07L13.26 79.89L13.01 79.7L12.62 79.28L12.31 78.82L12.09 78.32L11.96 77.76L11.91 77.16L11.96 76.55L12.08 76L12.3 75.5L12.6 75.05L12.98 74.65L13.49 74.28L14.08 73.99L14.75 73.78L15.5 73.66L16.32 73.62L17.19 73.66L17.97 73.78ZM14.94 74.52L14.38 74.76L13.89 75.09L13.69 75.28L13.52 75.49L13.37 75.72L13.24 75.98L13.15 76.24L13.08 76.53L13.04 76.83L13.02 77.16L13.08 77.77L13.24 78.32L13.5 78.81L13.87 79.22L14.35 79.56L14.91 79.8L15.57 79.94L16.32 79.99L17.15 79.94L17.86 79.79L18.46 79.54L18.94 79.2L19.13 79.01L19.3 78.8L19.44 78.58L19.55 78.33L19.63 78.07L19.69 77.79L19.73 77.48L19.74 77.16L19.74 77.16L19.53 75.92L18.89 75.04L17.82 74.51L16.32 74.34L15.59 74.38L14.94 74.52Z" id="a2WbF8N7i"></path><path d="M29.81 78.63C29.81 79.99 28.52 80.68 25.95 80.68C25.17 80.68 24.5 80.63 23.96 80.53C23.43 80.43 22.99 80.28 22.65 80.06C22.4 79.9 22.19 79.68 22.04 79.41C21.88 79.14 21.78 78.81 21.74 78.41C21.86 78.41 22.81 78.39 22.93 78.39C22.93 78.92 23.14 79.32 23.56 79.57C24.01 79.87 24.81 80.02 25.95 80.02C27.75 80.02 28.65 79.6 28.65 78.75C28.65 78.25 28.35 77.91 27.75 77.72C27.63 77.68 26.9 77.58 25.56 77.43C24.23 77.27 23.41 77.13 23.08 77.01C22.37 76.75 22.01 76.27 22.01 75.57C22.01 74.89 22.33 74.39 22.96 74.06C23.28 73.92 23.67 73.81 24.13 73.74C24.6 73.66 25.15 73.62 25.77 73.62C28.24 73.62 29.48 74.36 29.48 75.83C29.36 75.83 28.46 75.83 28.34 75.83C28.34 74.79 27.47 74.27 25.73 74.27C24.85 74.27 24.19 74.38 23.75 74.59C23.32 74.8 23.1 75.12 23.1 75.55C23.1 75.96 23.39 76.25 23.98 76.42C24.33 76.52 25.12 76.63 26.35 76.75C27.46 76.85 28.22 76.98 28.63 77.15C29.42 77.44 29.81 77.93 29.81 78.63" id="b2CqFbiDAL"></path><path d="M35 80.48C34.82 80.51 34.65 80.54 34.51 80.55C34.37 80.56 34.27 80.57 34.21 80.57C33.43 80.57 32.87 80.46 32.53 80.25C32.18 80.03 32.01 79.65 32.01 79.11C32.01 78.81 32.01 77.28 32.01 74.53L30.59 74.53L30.59 73.85L32 73.85L32.01 71.67L33.1 71.67L33.1 73.86L35 73.85L35 74.54L33.1 74.52C33.1 77.19 33.1 78.68 33.1 78.97C33.1 79.31 33.19 79.54 33.38 79.66C33.57 79.79 33.9 79.85 34.38 79.85C34.45 79.85 34.53 79.85 34.61 79.84C34.7 79.82 34.82 79.8 34.99 79.77C34.99 79.82 34.99 80.05 35 80.46" id="c2ot66Mryn"></path><path d="M39.96 73.64L40.22 73.66L40.48 73.7L40.72 73.74L40.95 73.79L41.17 73.86L41.38 73.93L41.58 74.01L41.77 74.1L41.84 74.14L41.91 74.19L41.99 74.26L42.08 74.33L42.18 74.41L42.29 74.51L42.4 74.61L42.53 74.72L42.66 74.85L42.8 74.98L42.81 73.84L43.9 73.84L43.9 80.25L43.9 80.26L43.86 80.83L43.73 81.34L43.52 81.79L43.22 82.19L42.83 82.52L42.36 82.79L41.81 83L41.17 83.15L40.44 83.24L39.63 83.27L39.2 83.26L38.79 83.25L38.41 83.22L38.05 83.18L37.72 83.12L37.42 83.06L37.14 82.98L36.89 82.9L36.66 82.8L36.46 82.69L36.3 82.58L36.16 82.46L36.03 82.33L35.91 82.19L35.8 82.04L35.71 81.87L35.63 81.69L35.56 81.5L35.51 81.3L35.46 81.08L36.59 81.07L36.63 81.22L36.68 81.37L36.73 81.51L36.79 81.63L36.86 81.75L36.93 81.86L37.02 81.96L37.1 82.05L37.2 82.12L37.3 82.19L37.44 82.27L37.61 82.35L37.79 82.41L37.99 82.46L38.21 82.51L38.45 82.55L38.71 82.58L38.99 82.6L39.28 82.61L39.6 82.62L39.93 82.61L40.24 82.59L40.54 82.56L40.81 82.52L41.07 82.46L41.31 82.4L41.52 82.32L41.72 82.22L41.9 82.12L42.06 82L42.2 81.87L42.33 81.73L42.44 81.58L42.54 81.43L42.62 81.26L42.69 81.08L42.74 80.88L42.78 80.68L42.81 80.47L42.81 80.25L42.8 79.07L42.58 79.31L42.33 79.53L42.05 79.72L41.75 79.89L41.41 80.03L41.05 80.15L40.66 80.24L40.24 80.3L39.79 80.34L39.31 80.35L38.91 80.34L38.53 80.32L38.16 80.27L37.82 80.21L37.49 80.13L37.18 80.03L36.9 79.92L36.62 79.78L36.37 79.63L36.14 79.46L36.04 79.37L35.94 79.28L35.85 79.18L35.77 79.08L35.68 78.98L35.61 78.87L35.54 78.76L35.47 78.65L35.41 78.53L35.35 78.41L35.3 78.28L35.25 78.15L35.21 78.02L35.18 77.88L35.15 77.74L35.13 77.6L35.11 77.45L35.1 77.3L35.09 77.14L35.09 76.99L35.1 76.67L35.13 76.38L35.18 76.1L35.26 75.83L35.35 75.58L35.47 75.34L35.61 75.12L35.77 74.91L35.95 74.72L36.15 74.55L36.38 74.37L36.64 74.21L36.91 74.07L37.21 73.95L37.52 73.85L37.86 73.77L38.21 73.7L38.59 73.66L38.99 73.63L39.4 73.62L39.69 73.63L39.96 73.64ZM38.14 74.51L37.56 74.74L37.08 75.04L36.7 75.43L36.43 75.88L36.26 76.4L36.21 76.99L36.42 78.16L37.06 78.99L38.13 79.49L39.63 79.66L39.99 79.65L40.33 79.62L40.65 79.56L40.95 79.48L41.23 79.38L41.49 79.26L41.73 79.11L41.97 78.94L42.34 78.56L42.6 78.1L42.76 77.56L42.81 76.95L42.81 76.95L42.76 76.39L42.6 75.88L42.34 75.44L41.98 75.05L41.52 74.74L40.96 74.52L40.3 74.38L39.55 74.34L38.8 74.38L38.14 74.51Z" id="b14zGcwdpr"></path><path d="M50.23 74.53C49.9 74.48 49.6 74.45 49.32 74.45C47.52 74.45 46.63 75.38 46.63 77.24C46.63 77.45 46.63 78.52 46.64 80.46L45.55 80.46L45.54 73.86L46.63 73.85L46.63 75.04C46.66 75.04 46.68 75.04 46.68 75.04C46.87 74.57 47.16 74.22 47.55 73.98C47.99 73.75 48.64 73.64 49.5 73.64C49.67 73.64 49.82 73.64 49.93 73.64C50.06 73.64 50.16 73.64 50.23 73.65C50.23 73.71 50.23 74 50.23 74.53" id="a137v2rQZG"></path><path d="M55.3 73.66L55.56 73.68L55.81 73.71L56.06 73.75L56.29 73.79L56.52 73.85L56.73 73.91L56.94 73.98L57.14 74.05L57.33 74.14L57.51 74.23L57.68 74.34L57.85 74.45L58 74.57L58.15 74.7L58.4 74.95L58.61 75.22L58.79 75.52L58.93 75.84L59.05 76.18L59.13 76.54L59.18 76.93L59.19 77.34L51.42 77.34L51.43 77.61L51.47 77.88L51.53 78.13L51.62 78.37L51.73 78.59L51.86 78.8L52.03 79L52.21 79.19L52.45 79.38L52.72 79.55L53.01 79.7L53.32 79.81L53.66 79.9L54.03 79.97L54.42 80.01L54.83 80.02L55.41 80L55.93 79.91L56.39 79.78L56.79 79.59L57.14 79.35L57.44 79.06L57.67 78.71L57.85 78.31L59.03 78.31L58.96 78.55L58.86 78.78L58.73 79L58.59 79.21L58.42 79.41L58.23 79.6L58.02 79.79L57.78 79.96L57.64 80.04L57.49 80.13L57.34 80.2L57.18 80.27L57.01 80.34L56.83 80.4L56.65 80.45L56.47 80.5L56.28 80.55L56.09 80.59L55.89 80.62L55.69 80.65L55.48 80.67L55.28 80.69L55.06 80.7L54.84 80.7L54.31 80.69L53.8 80.64L53.33 80.55L52.88 80.44L52.47 80.29L52.09 80.11L51.74 79.9L51.42 79.65L51.16 79.4L50.93 79.14L50.74 78.85L50.58 78.54L50.46 78.21L50.37 77.86L50.32 77.49L50.3 77.1L50.32 76.71L50.37 76.35L50.46 76L50.59 75.67L50.76 75.37L50.96 75.08L51.19 74.82L51.47 74.58L51.77 74.36L52.11 74.17L52.48 74.01L52.87 73.88L53.3 73.78L53.75 73.7L54.24 73.66L54.75 73.65L55.03 73.65L55.3 73.66ZM54.04 74.33L53.72 74.38L53.41 74.46L53.12 74.56L52.85 74.68L52.59 74.83L52.35 75L52.02 75.34L51.76 75.74L51.56 76.21L51.42 76.74L58.05 76.74L57.99 76.28L57.82 75.84L57.53 75.42L57.12 75.03L56.63 74.7L56.07 74.47L55.44 74.33L54.75 74.28L54.39 74.29L54.04 74.33Z" id="a1gaUTfmdg"></path><path d="M73.43 77.79C73.43 80.15 71.42 81.34 67.39 81.34C64.98 81.34 63.22 80.93 62.11 80.12C61.21 79.45 60.75 78.43 60.75 77.07C60.91 77.07 62.21 77.07 62.37 77.07C62.37 79.27 64.05 80.37 67.39 80.37C69 80.37 70.16 80.14 70.87 79.68C71.48 79.29 71.78 78.67 71.78 77.82C71.78 76.98 71.37 76.38 70.54 76.04C70.07 75.86 68.93 75.63 67.12 75.36C64.83 75.03 63.35 74.7 62.68 74.37C61.7 73.88 61.21 73.06 61.21 71.9C61.21 70.81 61.62 70.01 62.46 69.48C63.35 68.9 64.89 68.61 67.08 68.61C71.02 68.61 72.99 69.85 72.99 72.33C72.82 72.33 71.52 72.33 71.35 72.33C71.35 70.48 69.89 69.55 66.97 69.55C65.5 69.55 64.43 69.74 63.75 70.11C63.11 70.5 62.79 71.09 62.79 71.86C62.79 72.67 63.2 73.24 64.02 73.57C64.46 73.76 65.76 74.02 67.9 74.35C69.92 74.64 71.28 74.98 71.98 75.36C72.95 75.83 73.43 76.64 73.43 77.79" id="cbcfkjhUj"></path><path d="M82.45 68.61L82.82 68.63L83.17 68.66L83.52 68.71L83.86 68.76L84.18 68.82L84.51 68.88L84.82 68.96L85.12 69.05L85.42 69.15L85.7 69.25L85.98 69.37L86.25 69.49L86.51 69.63L86.76 69.77L87 69.92L87.24 70.09L87.46 70.26L87.68 70.44L88.06 70.79L88.39 71.17L88.69 71.56L88.95 71.98L89.16 72.42L89.34 72.89L89.48 73.37L89.58 73.88L89.64 74.41L89.66 74.96L89.65 75.28L89.64 75.58L89.61 75.88L89.56 76.17L89.51 76.45L89.44 76.73L89.36 76.99L89.27 77.25L89.17 77.51L89.05 77.75L88.93 77.99L88.79 78.22L88.63 78.44L88.47 78.65L88.28 78.86L88.09 79.06L87.88 79.26L87.66 79.44L87.43 79.62L87.18 79.79L89.49 81.31L88.5 82.16L86.11 80.58L85.96 80.65L85.8 80.72L85.63 80.79L85.45 80.85L85.27 80.91L85.09 80.97L84.89 81.02L84.69 81.07L84.48 81.11L84.27 81.15L84.05 81.19L83.82 81.22L83.58 81.25L83.34 81.28L83.09 81.3L82.83 81.32L82.57 81.33L82.29 81.34L82.01 81.35L81.73 81.35L81 81.33L80.3 81.28L79.63 81.19L79 81.07L78.39 80.91L77.82 80.72L77.28 80.49L76.77 80.23L76.29 79.93L75.84 79.59L75.43 79.23L75.07 78.84L74.75 78.44L74.47 78.01L74.23 77.55L74.04 77.08L73.89 76.58L73.78 76.07L73.72 75.53L73.7 74.96L73.72 74.39L73.78 73.84L73.89 73.31L74.04 72.81L74.23 72.34L74.46 71.88L74.74 71.45L75.06 71.05L75.42 70.67L75.83 70.31L76.27 69.99L76.74 69.69L77.25 69.43L77.79 69.21L78.36 69.02L78.96 68.87L79.6 68.75L80.27 68.66L80.97 68.61L81.7 68.59L82.08 68.6L82.45 68.61ZM80.14 69.67L79.42 69.81L78.75 70.02L78.13 70.28L77.55 70.6L77.02 70.98L76.56 71.41L76.16 71.89L75.84 72.41L75.59 72.98L75.41 73.59L75.3 74.26L75.26 74.96L75.3 75.65L75.41 76.29L75.59 76.89L75.84 77.46L76.17 77.98L76.57 78.47L77.04 78.91L77.57 79.3L78.15 79.63L78.77 79.9L79.44 80.11L80.15 80.26L80.91 80.35L81.71 80.38L82.11 80.37L82.5 80.35L82.88 80.32L83.24 80.27L83.6 80.2L83.94 80.12L84.27 80.03L84.59 79.92L84.9 79.8L85.21 79.67L85.5 79.52L85.78 79.36L86.05 79.18L86.32 79L86.79 78.55L87.19 78.06L87.52 77.53L87.78 76.95L87.96 76.33L88.07 75.67L88.11 74.96L88.1 74.62L88.07 74.28L88.03 73.95L87.97 73.63L87.89 73.33L87.79 73.04L87.68 72.75L87.55 72.48L87.4 72.21L87.23 71.96L87.04 71.71L86.83 71.48L86.61 71.26L86.36 71.04L85.85 70.65L85.29 70.31L84.68 70.04L84.01 69.82L83.3 69.67L82.53 69.58L81.71 69.55L80.9 69.58L80.14 69.67Z" id="c5XberbfeT"></path><path d="M101.76 81.02L90.69 81.04L90.69 68.92L92.22 68.9L92.22 80.01L101.77 80.01L101.76 81.03" id="fCwBy348"></path></defs><g><g><g><use xlink:href="#a2iOkxikGh" opacity="1" fill="#000000" fill-opacity="0"></use><g><use xlink:href="#a2iOkxikGh" opacity="1" fill-opacity="0" stroke="#000000" stroke-width="1.08" stroke-opacity="1"></use></g></g><g><use xlink:href="#b13ahLxKwL" opacity="1" fill="#000000" fill-opacity="0"></use><g><use xlink:href="#b13ahLxKwL" opacity="1" fill-opacity="0" stroke="#000000" stroke-width="1.08" stroke-opacity="1"></use></g></g><g><use xlink:href="#fbeNawKiE" opacity="1" fill="#000000" fill-opacity="0"></use><g><use xlink:href="#fbeNawKiE" opacity="1" fill-opacity="0" stroke="#000000" stroke-width="1.08" stroke-opacity="1"></use></g></g><g><use xlink:href="#bbXTGVZ3S" opacity="1" fill="#000000" fill-opacity="0"></use><g><use xlink:href="#bbXTGVZ3S" opacity="1" fill-opacity="0" stroke="#000000" stroke-width="1.08" stroke-opacity="1"></use></g></g><g><use xlink:href="#bFOg3rh0" opacity="1" fill="#000000" fill-opacity="0"></use><g><use xlink:href="#bFOg3rh0" opacity="1" fill-opacity="0" stroke="#000000" stroke-width="1.08" stroke-opacity="1"></use></g></g><g><use xlink:href="#aHwlbOvU" opacity="1" fill="#000000" fill-opacity="0"></use><g><use xlink:href="#aHwlbOvU" opacity="1" fill-opacity="0" stroke="#000000" stroke-width="1.08" stroke-opacity="1"></use></g></g><g><use xlink:href="#ed4V7uvBWQ" opacity="1" fill="#000000" fill-opacity="0"></use><g><use xlink:href="#ed4V7uvBWQ" opacity="1" fill-opacity="0" stroke="#000000" stroke-width="0.36" stroke-opacity="1"></use></g></g><g><use xlink:href="#cKXnepbV8" opacity="1" fill="#000000" fill-opacity="0"></use><g><use xlink:href="#cKXnepbV8" opacity="1" fill-opacity="0" stroke="#000000" stroke-width="0.18" stroke-opacity="1"></use></g></g><g><use xlink:href="#a1eWTZLFJR" opacity="1" fill="#000000" fill-opacity="0"></use><g><use xlink:href="#a1eWTZLFJR" opacity="1" fill-opacity="0" stroke="#000000" stroke-width="1.08" stroke-opacity="1"></use></g></g><g><use xlink:href="#ashMTu49" opacity="1" fill="#000000" fill-opacity="1"></use><g><use xlink:href="#ashMTu49" opacity="1" fill-opacity="0" stroke="#000000" stroke-width="1" stroke-opacity="0"></use></g></g><g><use xlink:href="#f4qgItt1Lv" opacity="1" fill="#316192" fill-opacity="1"></use><g><use xlink:href="#f4qgItt1Lv" opacity="1" fill-opacity="0" stroke="#ffffff" stroke-width="1" stroke-opacity="1"></use></g></g><g><use xlink:href="#a2NcVB9gR9" opacity="1" fill="#316192" fill-opacity="1"></use><g><use xlink:href="#a2NcVB9gR9" opacity="1" fill-opacity="0" stroke="#ffffff" stroke-width="1" stroke-opacity="1"></use></g></g><g><use xlink:href="#kYwFX6ZH" opacity="1" fill="#316192" fill-opacity="1"></use><g><use xlink:href="#kYwFX6ZH" opacity="1" fill-opacity="0" stroke="#ffffff" stroke-width="1" stroke-opacity="1"></use></g></g><g><use xlink:href="#ba1dWoZnDK" opacity="1" fill="#316192" fill-opacity="1"></use><g><use xlink:href="#ba1dWoZnDK" opacity="1" fill-opacity="0" stroke="#ffffff" stroke-width="1" stroke-opacity="1"></use></g></g><g><use xlink:href="#b3RSZj0kG3" opacity="1" fill="#316192" fill-opacity="1"></use><g><use xlink:href="#b3RSZj0kG3" opacity="1" fill-opacity="0" stroke="#ffffff" stroke-width="1" stroke-opacity="1"></use></g></g><g><use xlink:href="#aCipT25sI" opacity="1" fill="#316192" fill-opacity="1"></use><g><use xlink:href="#aCipT25sI" opacity="1" fill-opacity="0" stroke="#ffffff" stroke-width="1" stroke-opacity="1"></use></g></g><g><use xlink:href="#dlrHCjBaX" opacity="1" fill="#316192" fill-opacity="1"></use><g><use xlink:href="#dlrHCjBaX" opacity="1" fill-opacity="0" stroke="#ffffff" stroke-width="1" stroke-opacity="1"></use></g></g><g><use xlink:href="#fYGz0UZjv" opacity="1" fill="#ffffff" fill-opacity="1"></use><g><use xlink:href="#fYGz0UZjv" opacity="1" fill-opacity="0" stroke="#ffffff" stroke-width="0.33" stroke-opacity="1"></use></g></g><g><use xlink:href="#bwoKmoxoM" opacity="1" fill="#ffffff" fill-opacity="1"></use><g><use xlink:href="#bwoKmoxoM" opacity="1" fill-opacity="0" stroke="#ffffff" stroke-width="0.17" stroke-opacity="1"></use></g></g><g><use xlink:href="#c2yTzZpqt9" opacity="1" fill="#316192" fill-opacity="1"></use><g><use xlink:href="#c2yTzZpqt9" opacity="1" fill-opacity="0" stroke="#ffffff" stroke-width="1" stroke-opacity="1"></use></g></g><g><use xlink:href="#b3lhrjJ6ls" opacity="1" fill="#1a1a1a" fill-opacity="1"></use><g><use xlink:href="#b3lhrjJ6ls" opacity="1" fill-opacity="0" stroke="#000000" stroke-width="1" stroke-opacity="0"></use></g></g><g><use xlink:href="#a2WbF8N7i" opacity="1" fill="#1a1a1a" fill-opacity="1"></use><g><use xlink:href="#a2WbF8N7i" opacity="1" fill-opacity="0" stroke="#000000" stroke-width="1" stroke-opacity="0"></use></g></g><g><use xlink:href="#b2CqFbiDAL" opacity="1" fill="#1a1a1a" fill-opacity="1"></use><g><use xlink:href="#b2CqFbiDAL" opacity="1" fill-opacity="0" stroke="#000000" stroke-width="1" stroke-opacity="0"></use></g></g><g><use xlink:href="#c2ot66Mryn" opacity="1" fill="#1a1a1a" fill-opacity="1"></use><g><use xlink:href="#c2ot66Mryn" opacity="1" fill-opacity="0" stroke="#000000" stroke-width="1" stroke-opacity="0"></use></g></g><g><use xlink:href="#b14zGcwdpr" opacity="1" fill="#1a1a1a" fill-opacity="1"></use><g><use xlink:href="#b14zGcwdpr" opacity="1" fill-opacity="0" stroke="#000000" stroke-width="1" stroke-opacity="0"></use></g></g><g><use xlink:href="#a137v2rQZG" opacity="1" fill="#1a1a1a" fill-opacity="1"></use><g><use xlink:href="#a137v2rQZG" opacity="1" fill-opacity="0" stroke="#000000" stroke-width="1" stroke-opacity="0"></use></g></g><g><use xlink:href="#a1gaUTfmdg" opacity="1" fill="#1a1a1a" fill-opacity="1"></use><g><use xlink:href="#a1gaUTfmdg" opacity="1" fill-opacity="0" stroke="#000000" stroke-width="1" stroke-opacity="0"></use></g></g><g><use xlink:href="#cbcfkjhUj" opacity="1" fill="#316192" fill-opacity="1"></use><g><use xlink:href="#cbcfkjhUj" opacity="1" fill-opacity="0" stroke="#000000" stroke-width="1" stroke-opacity="0"></use></g></g><g><use xlink:href="#c5XberbfeT" opacity="1" fill="#316192" fill-opacity="1"></use><g><use xlink:href="#c5XberbfeT" opacity="1" fill-opacity="0" stroke="#000000" stroke-width="1" stroke-opacity="0"></use></g></g><g><use xlink:href="#fCwBy348" opacity="1" fill="#316192" fill-opacity="1"></use><g><use xlink:href="#fCwBy348" opacity="1" fill-opacity="0" stroke="#000000" stroke-width="1" stroke-opacity="0"></use></g></g></g></g></svg>