<?xml version="1.0" encoding="UTF-8" standalone="no"?>
<!DOCTYPE svg PUBLIC "-//W3C//DTD SVG 1.1//EN" "http://www.w3.org/Graphics/SVG/1.1/DTD/svg11.dtd">
<svg version="1.1" xmlns="http://www.w3.org/2000/svg" xmlns:xlink="http://www.w3.org/1999/xlink" preserveAspectRatio="xMidYMid meet" viewBox="0 0 120 120" width="120" height="120"><defs><path d="M56.61 64.17C56.25 74.43 57.19 82.58 58.45 85.08C59.73 87.59 63.9 91.31 73.23 89.73C81.03 88.41 84.6 85.85 85.83 80.19C86.73 76.02 87.99 67.44 88.21 65.07" id="b4N9vRjrNB"></path><path d="M56.61 64.17C56.25 74.43 57.19 82.58 58.45 85.08C59.73 87.59 63.9 91.31 73.23 89.73C81.03 88.41 84.6 85.85 85.83 80.19C86.73 76.02 87.99 67.44 88.21 65.07" id="aXHDTzhC0"></path><path d="M49.9 11.58C49.9 11.58 6.93 -2.1 8.89 29C9.31 35.63 21.6 79.08 35.38 65.96C43.72 59.79 44.97 57.39 44.97 57.39" id="aFoCfrDQy"></path><path d="M49.9 11.58C49.9 11.58 6.93 -2.1 8.89 29C9.31 35.63 21.6 79.08 35.38 65.96C43.72 59.79 44.97 57.39 44.97 57.39" id="e3Xc62qRAj"></path><path d="M69.7 9.08C68.25 9.44 93.21 1.85 107.38 16.22C112.39 21.29 106.59 42.02 92.7 58.34" id="a1QHPx0j5R"></path><path d="M69.7 9.08C68.25 9.44 93.21 1.85 107.38 16.22C112.39 21.29 106.59 42.02 92.7 58.34" id="a2vzWIzvzY"></path><path d="M92.7 54.99C92.7 54.99 93.6 58.52 106.75 56.37C112.53 55.43 109.05 62.37 103.21 64.52C98.41 66.29 87.66 66.74 87.48 64.29C87.03 58.01 93.15 56.57 92.7 54.99C92.31 53.57 89.56 55.53 87.76 52.05C86.19 49.02 66.1 25.77 93.33 29.22C94.32 29.06 86.23 8.72 60.76 8.39C35.29 8.06 36.13 33.2 36.13 33.2" id="a1xS9p4UJB"></path><path d="M92.7 54.99C92.7 54.99 93.6 58.52 106.75 56.37C112.53 55.43 109.05 62.37 103.21 64.52C98.41 66.29 87.66 66.74 87.48 64.29C87.03 58.01 93.15 56.57 92.7 54.99C92.31 53.57 89.56 55.53 87.76 52.05C86.19 49.02 66.1 25.77 93.33 29.22C94.32 29.06 86.23 8.72 60.76 8.39C35.29 8.06 36.13 33.2 36.13 33.2" id="cxAriwNcl"></path><path d="M41.14 68.31C47.04 69.17 51.7 70.55 57.42 65.73C59.01 63.96 57.4 60.38 55.23 59.66C54.16 59.31 52.75 58.88 50.95 60.5C47.4 63.63 48.45 64.19 41.34 65.34C34.17 66.51 38.38 67.67 41.14 68.31Z" id="a1h5fe1urj"></path><path d="M41.14 68.31C47.04 69.17 51.7 70.55 57.42 65.73C59.01 63.96 57.4 60.38 55.23 59.66C54.16 59.31 52.75 58.88 50.95 60.5C47.4 63.63 48.45 64.19 41.34 65.34C34.17 66.51 38.38 67.67 41.14 68.31Z" id="a6rFOa9bEF"></path><path d="M50.71 60.44C50.35 58.59 51.48 56.39 52.68 53.82C54.49 49.95 58.68 46.1 55.33 33.86C52.84 24.74 36.13 31.95 36.13 33.2C36.12 34.43 36.88 39.47 35.85 45.33C34.5 52.98 42 59.45 50.62 58.79" id="b27rSyTrEV"></path><path d="M50.71 60.44C50.35 58.59 51.48 56.39 52.68 53.82C54.49 49.95 58.68 46.1 55.33 33.86C52.84 24.74 36.13 31.95 36.13 33.2C36.12 34.43 36.88 39.47 35.85 45.33C34.5 52.98 42 59.45 50.62 58.79" id="b2RU3IUaeZ"></path><path d="M51.7 33.56C51.78 33.14 50.73 32.67 49.35 32.52C47.98 32.37 46.81 32.58 46.74 33.02C46.74 33.02 46.74 33.02 46.74 33.02C47.4 34.04 48.18 34.61 49.09 34.71C50.46 34.86 51.63 33.98 51.7 33.56Z" id="a1Z1STxEl2"></path><path d="M51.7 33.56C51.78 33.14 50.73 32.67 49.35 32.52C47.98 32.37 46.81 32.58 46.74 33.02C46.74 33.02 46.74 33.02 46.74 33.02C47.4 34.04 48.18 34.61 49.09 34.71C50.46 34.86 51.63 33.98 51.7 33.56Z" id="bhjg9liZj"></path><path d="M83.46 32.7C83.4 32.28 84.45 31.82 85.81 31.65C87.18 31.5 88.35 31.73 88.42 32.15C88.42 32.15 88.42 32.15 88.42 32.15C87.78 33.18 87 33.75 86.08 33.84C84.7 34.01 83.53 33.12 83.46 32.7Z" id="aaCxJyhOQ"></path><path d="M83.46 32.7C83.4 32.28 84.45 31.82 85.81 31.65C87.18 31.5 88.35 31.73 88.42 32.15C88.42 32.15 88.42 32.15 88.42 32.15C87.78 33.18 87 33.75 86.08 33.84C84.7 34.01 83.53 33.12 83.46 32.7Z" id="am9isoUku"></path><path d="M93.33 29.22C93.55 32.54 92.43 34.8 92.28 38.33C92.07 43.46 95.37 49.32 90.4 55.2" id="d1JZ9cjlkj"></path><path d="M93.33 29.22C93.55 32.54 92.43 34.8 92.28 38.33C92.07 43.46 95.37 49.32 90.4 55.2" id="f1Tiamox4T"></path><path d="M50.5 58.59L46.92 62.76L40.72 62.31L42.33 58.74L50.5 58.59Z" id="b5DSYmogeb"></path><path d="M50.5 58.59L46.92 62.76L40.72 62.31L42.33 58.74L50.5 58.59Z" id="e5j2BWwDMo"></path><path d="M104.79 18.09C92.19 5.34 70.38 11.37 70.02 11.54C70 11.54 69.91 11.55 69.9 11.55C67.5 11.15 64.83 10.92 61.81 10.88C56.32 10.8 52.17 12.02 49 13.92C49 13.92 10.11 1.22 11.92 29.88C12.3 35.99 22.95 76.04 35.65 63.93C40.29 59.51 44.77 55.77 44.77 55.77C47.01 56.94 49.66 57.54 52.47 57.33C52.48 57.32 52.66 57.2 52.68 57.18C52.62 57.74 52.65 58.26 52.77 58.91C49.5 61.8 50.46 62.31 43.92 63.38C37.3 64.46 41.19 66.38 43.72 66.89C46.8 67.49 53.92 68.36 58.74 63.02C58.71 63.08 58.56 63.57 58.54 63.63C59.82 64.44 60.72 68.93 60.57 72.98C60.42 77.04 60.33 79.83 61.33 82.01C62.34 84.18 63.34 89.09 71.94 87.62C79.12 86.4 82.86 83.24 83.37 77.97C83.74 74.22 84.57 74.78 84.61 71.42C84.69 71.27 85.23 69.99 85.29 69.83C86.05 64.76 85.41 63.11 89.83 63.87C89.94 63.89 90.81 63.95 90.91 63.95C94.17 64.07 98.43 63.54 100.93 62.61C106.32 60.63 109.51 57.32 104.2 58.19C104.2 58.19 104.2 58.19 104.2 58.19C97.3 57.51 92.98 57.09 91.24 56.93C104.05 41.87 109.39 22.77 104.79 18.09Z" id="ayY0NTSYr"></path><path d="M104.79 18.09C92.19 5.34 70.38 11.37 70.02 11.54C70 11.54 69.91 11.55 69.9 11.55C67.5 11.15 64.83 10.92 61.81 10.88C56.32 10.8 52.17 12.02 49 13.92C49 13.92 10.11 1.22 11.92 29.88C12.3 35.99 22.95 76.04 35.65 63.93C40.29 59.51 44.77 55.77 44.77 55.77C47.01 56.94 49.66 57.54 52.47 57.33C52.48 57.32 52.66 57.2 52.68 57.18C52.62 57.74 52.65 58.26 52.77 58.91C49.5 61.8 50.46 62.31 43.92 63.38C37.3 64.46 41.19 66.38 43.72 66.89C46.8 67.49 53.92 68.36 58.74 63.02C58.71 63.08 58.56 63.57 58.54 63.63C59.82 64.44 60.72 68.93 60.57 72.98C60.42 77.04 60.33 79.83 61.33 82.01C62.34 84.18 63.34 89.09 71.94 87.62C79.12 86.4 82.86 83.24 83.37 77.97C83.74 74.22 84.57 74.78 84.61 71.42C84.69 71.27 85.23 69.99 85.29 69.83C86.05 64.76 85.41 63.11 89.83 63.87C89.94 63.89 90.81 63.95 90.91 63.95C94.17 64.07 98.43 63.54 100.93 62.61C106.32 60.63 109.51 57.32 104.2 58.19C104.2 58.19 104.2 58.19 104.2 58.19C97.3 57.51 92.98 57.09 91.24 56.93C104.05 41.87 109.39 22.77 104.79 18.09Z" id="a1kLnEUGy"></path><path d="M59.25 61.11C58.92 70.56 59.34 80.09 60.51 82.4C61.68 84.71 64.17 89.21 72.78 87.75C79.95 86.54 82.57 84.17 83.7 78.96C84.54 75.12 86.14 64.47 86.35 62.3" id="d2xQVrzFKO"></path><path d="M58.14 61.93C57.81 71.38 58.23 80.9 59.4 83.21C60.57 85.52 63.06 90.02 71.67 88.57C78.84 87.35 81.46 84.98 82.59 79.78C83.43 75.94 85.03 65.29 85.24 63.11" id="auQ3LaPvt"></path><path d="M48.94 13.71C48.94 13.71 10.02 1.1 11.83 29.76C12.22 35.87 22.87 75.92 35.56 63.81C40.2 59.39 44.4 55.92 44.4 55.92" id="d1eDvb1Ys8"></path><path d="M48.94 13.71C48.94 13.71 10.02 1.1 11.83 29.76C12.22 35.87 22.87 75.92 35.56 63.81C40.2 59.39 44.4 55.92 44.4 55.92" id="a3OuRdlsCw"></path><path d="M69.97 11.4C68.62 11.75 91.63 4.74 104.7 17.97C109.32 22.65 103.96 41.76 91.17 56.81" id="f116FCqX9n"></path><path d="M69.97 11.4C68.62 11.75 91.63 4.74 104.7 17.97C109.32 22.65 103.96 41.76 91.17 56.81" id="gwId9F2ZX"></path><path d="M91.17 56.81C91.17 56.81 91.99 60.06 104.13 58.07C109.44 57.21 106.24 60.51 100.84 62.49C96.43 64.13 86.52 64.53 86.35 62.3C85.93 56.49 91.57 58.26 91.17 56.81C90.79 55.5 88.27 54.21 86.61 51.02C85.15 48.21 66.66 26.79 91.74 29.97C92.65 29.82 85.2 11.07 61.72 10.76C38.26 10.46 39.03 33.63 39.03 33.63" id="b8xIDCh6H"></path><path d="M91.17 56.81C91.17 56.81 91.99 60.06 104.13 58.07C109.44 57.21 106.24 60.51 100.84 62.49C96.43 64.13 86.52 64.53 86.35 62.3C85.93 56.49 91.57 58.26 91.17 56.81C90.79 55.5 88.27 54.21 86.61 51.02C85.15 48.21 66.66 26.79 91.74 29.97C92.65 29.82 85.2 11.07 61.72 10.76C38.26 10.46 39.03 33.63 39.03 33.63" id="b9XZGieVR"></path><path d="M43.65 66.77C46.72 67.38 53.83 68.24 58.65 62.9C60.12 61.28 58.63 58.68 56.62 58.02C55.65 57.71 54.36 57.3 52.68 58.79C52.68 58.79 52.68 58.79 52.68 58.79C51.15 61.05 48.19 62.55 43.83 63.26C37.21 64.34 41.1 66.26 43.65 66.77Z" id="e1pq1AtKJy"></path><path d="M43.65 66.77C46.72 67.38 53.83 68.24 58.65 62.9C60.12 61.28 58.63 58.68 56.62 58.02C55.65 57.71 54.36 57.3 52.68 58.79C52.68 58.79 52.68 58.79 52.68 58.79C51.15 61.05 48.19 62.55 43.83 63.26C37.21 64.34 41.1 66.26 43.65 66.77Z" id="c2SAbsAOxO"></path><path d="M52.47 58.74C52.14 57.03 53.17 55.01 54.28 52.64C55.95 49.08 59.8 45.53 56.73 34.23C54.43 25.83 39.04 32.49 39.03 33.63C39.01 34.77 39.72 39.41 38.77 44.81C37.53 51.86 44.43 57.83 52.38 57.21" id="elgcsmLpC"></path><path d="M52.47 58.74C52.14 57.03 53.17 55.01 54.28 52.64C55.95 49.08 59.8 45.53 56.73 34.23C54.43 25.83 39.04 32.49 39.03 33.63C39.01 34.77 39.72 39.41 38.77 44.81C37.53 51.86 44.43 57.83 52.38 57.21" id="b3LswGJ1nk"></path><path d="M53.38 33.96C53.44 33.57 52.48 33.15 51.22 33C49.95 32.87 48.87 33.08 48.81 33.45C48.81 33.45 48.81 33.45 48.81 33.45C49.41 34.41 50.13 34.94 50.97 35.03C52.23 35.16 53.31 34.35 53.38 33.96Z" id="b1GklKMKd6"></path><path d="M53.38 33.96C53.44 33.57 52.48 33.15 51.22 33C49.95 32.87 48.87 33.08 48.81 33.45C48.81 33.45 48.81 33.45 48.81 33.45C49.41 34.41 50.13 34.94 50.97 35.03C52.23 35.16 53.31 34.35 53.38 33.96Z" id="bVT4E0iaV"></path><path d="M82.65 33.17C82.59 32.78 83.55 32.36 84.82 32.21C86.08 32.07 87.16 32.28 87.22 32.67C87.22 32.67 87.22 32.67 87.22 32.67C86.62 33.62 85.9 34.14 85.06 34.23C83.8 34.37 82.72 33.56 82.65 33.17Z" id="h47DXKECv"></path><path d="M82.65 33.17C82.59 32.78 83.55 32.36 84.82 32.21C86.08 32.07 87.16 32.28 87.22 32.67C87.22 32.67 87.22 32.67 87.22 32.67C86.62 33.62 85.9 34.14 85.06 34.23C83.8 34.37 82.72 33.56 82.65 33.17Z" id="a9raClceS"></path><path d="M91.74 29.97C91.95 33.03 90.91 35.1 90.78 38.36C90.58 43.08 93.63 48.5 89.05 53.91" id="eyEoYIgR"></path><path d="M91.74 29.97C91.95 33.03 90.91 35.1 90.78 38.36C90.58 43.08 93.63 48.5 89.05 53.91" id="b1MtSavC7Q"></path></defs><g><g><g><use xlink:href="#b4N9vRjrNB" opacity="1" fill="#000000" fill-opacity="0"></use><g><use xlink:href="#b4N9vRjrNB" opacity="1" fill-opacity="0" stroke="#000000" stroke-width="1" stroke-opacity="0"></use></g></g><g><use xlink:href="#aXHDTzhC0" opacity="1" fill="#000000" fill-opacity="0"></use><g><use xlink:href="#aXHDTzhC0" opacity="1" fill-opacity="0" stroke="#000000" stroke-width="1.08" stroke-opacity="1"></use></g></g><g><use xlink:href="#aFoCfrDQy" opacity="1" fill="#000000" fill-opacity="0"></use><g><use xlink:href="#aFoCfrDQy" opacity="1" fill-opacity="0" stroke="#000000" stroke-width="1" stroke-opacity="0"></use></g></g><g><use xlink:href="#e3Xc62qRAj" opacity="1" fill="#000000" fill-opacity="0"></use><g><use xlink:href="#e3Xc62qRAj" opacity="1" fill-opacity="0" stroke="#000000" stroke-width="1.08" stroke-opacity="1"></use></g></g><g><use xlink:href="#a1QHPx0j5R" opacity="1" fill="#000000" fill-opacity="0"></use><g><use xlink:href="#a1QHPx0j5R" opacity="1" fill-opacity="0" stroke="#000000" stroke-width="1" stroke-opacity="0"></use></g></g><g><use xlink:href="#a2vzWIzvzY" opacity="1" fill="#000000" fill-opacity="0"></use><g><use xlink:href="#a2vzWIzvzY" opacity="1" fill-opacity="0" stroke="#000000" stroke-width="1.08" stroke-opacity="1"></use></g></g><g><use xlink:href="#a1xS9p4UJB" opacity="1" fill="#000000" fill-opacity="0"></use><g><use xlink:href="#a1xS9p4UJB" opacity="1" fill-opacity="0" stroke="#000000" stroke-width="1" stroke-opacity="0"></use></g></g><g><use xlink:href="#cxAriwNcl" opacity="1" fill="#000000" fill-opacity="0"></use><g><use xlink:href="#cxAriwNcl" opacity="1" fill-opacity="0" stroke="#000000" stroke-width="1.08" stroke-opacity="1"></use></g></g><g><use xlink:href="#a1h5fe1urj" opacity="1" fill="#000000" fill-opacity="0"></use><g><use xlink:href="#a1h5fe1urj" opacity="1" fill-opacity="0" stroke="#000000" stroke-width="1" stroke-opacity="0"></use></g></g><g><use xlink:href="#a6rFOa9bEF" opacity="1" fill="#000000" fill-opacity="0"></use><g><use xlink:href="#a6rFOa9bEF" opacity="1" fill-opacity="0" stroke="#000000" stroke-width="1.08" stroke-opacity="1"></use></g></g><g><use xlink:href="#b27rSyTrEV" opacity="1" fill="#000000" fill-opacity="0"></use><g><use xlink:href="#b27rSyTrEV" opacity="1" fill-opacity="0" stroke="#000000" stroke-width="1" stroke-opacity="0"></use></g></g><g><use xlink:href="#b2RU3IUaeZ" opacity="1" fill="#000000" fill-opacity="0"></use><g><use xlink:href="#b2RU3IUaeZ" opacity="1" fill-opacity="0" stroke="#000000" stroke-width="1.08" stroke-opacity="1"></use></g></g><g><use xlink:href="#a1Z1STxEl2" opacity="1" fill="#000000" fill-opacity="0"></use><g><use xlink:href="#a1Z1STxEl2" opacity="1" fill-opacity="0" stroke="#000000" stroke-width="1" stroke-opacity="0"></use></g></g><g><use xlink:href="#bhjg9liZj" opacity="1" fill="#000000" fill-opacity="0"></use><g><use xlink:href="#bhjg9liZj" opacity="1" fill-opacity="0" stroke="#000000" stroke-width="0.36" stroke-opacity="1"></use></g></g><g><use xlink:href="#aaCxJyhOQ" opacity="1" fill="#000000" fill-opacity="0"></use><g><use xlink:href="#aaCxJyhOQ" opacity="1" fill-opacity="0" stroke="#000000" stroke-width="1" stroke-opacity="0"></use></g></g><g><use xlink:href="#am9isoUku" opacity="1" fill="#000000" fill-opacity="0"></use><g><use xlink:href="#am9isoUku" opacity="1" fill-opacity="0" stroke="#000000" stroke-width="0.18" stroke-opacity="1"></use></g></g><g><use xlink:href="#d1JZ9cjlkj" opacity="1" fill="#000000" fill-opacity="0"></use><g><use xlink:href="#d1JZ9cjlkj" opacity="1" fill-opacity="0" stroke="#000000" stroke-width="1" stroke-opacity="0"></use></g></g><g><use xlink:href="#f1Tiamox4T" opacity="1" fill="#000000" fill-opacity="0"></use><g><use xlink:href="#f1Tiamox4T" opacity="1" fill-opacity="0" stroke="#000000" stroke-width="1.08" stroke-opacity="1"></use></g></g><g><use xlink:href="#b5DSYmogeb" opacity="1" fill="#000000" fill-opacity="1"></use><g><use xlink:href="#b5DSYmogeb" opacity="1" fill-opacity="0" stroke="#000000" stroke-width="1" stroke-opacity="0"></use></g></g><g><use xlink:href="#e5j2BWwDMo" opacity="1" fill="#000000" fill-opacity="0"></use><g><use xlink:href="#e5j2BWwDMo" opacity="1" fill-opacity="0" stroke="#000000" stroke-width="1" stroke-opacity="0"></use></g></g><g><use xlink:href="#ayY0NTSYr" opacity="1" fill="#316192" fill-opacity="1"></use><g><use xlink:href="#ayY0NTSYr" opacity="1" fill-opacity="0" stroke="#000000" stroke-width="1" stroke-opacity="0"></use></g></g><g><use xlink:href="#a1kLnEUGy" opacity="1" fill="#000000" fill-opacity="0"></use><g><use xlink:href="#a1kLnEUGy" opacity="1" fill-opacity="0" stroke="#ffffff" stroke-width="1" stroke-opacity="1"></use></g></g><g><use xlink:href="#d2xQVrzFKO" opacity="1" fill="#316192" fill-opacity="1"></use><g><use xlink:href="#d2xQVrzFKO" opacity="1" fill-opacity="0" stroke="#000000" stroke-width="1" stroke-opacity="0"></use></g></g><g><use xlink:href="#auQ3LaPvt" opacity="1" fill="#000000" fill-opacity="0"></use><g><use xlink:href="#auQ3LaPvt" opacity="1" fill-opacity="0" stroke="#ffffff" stroke-width="1" stroke-opacity="1"></use></g></g><g><use xlink:href="#d1eDvb1Ys8" opacity="1" fill="#316192" fill-opacity="1"></use><g><use xlink:href="#d1eDvb1Ys8" opacity="1" fill-opacity="0" stroke="#000000" stroke-width="1" stroke-opacity="0"></use></g></g><g><use xlink:href="#a3OuRdlsCw" opacity="1" fill="#000000" fill-opacity="0"></use><g><use xlink:href="#a3OuRdlsCw" opacity="1" fill-opacity="0" stroke="#ffffff" stroke-width="1" stroke-opacity="1"></use></g></g><g><use xlink:href="#f116FCqX9n" opacity="1" fill="#316192" fill-opacity="1"></use><g><use xlink:href="#f116FCqX9n" opacity="1" fill-opacity="0" stroke="#000000" stroke-width="1" stroke-opacity="0"></use></g></g><g><use xlink:href="#gwId9F2ZX" opacity="1" fill="#000000" fill-opacity="0"></use><g><use xlink:href="#gwId9F2ZX" opacity="1" fill-opacity="0" stroke="#ffffff" stroke-width="1" stroke-opacity="1"></use></g></g><g><use xlink:href="#b8xIDCh6H" opacity="1" fill="#316192" fill-opacity="1"></use><g><use xlink:href="#b8xIDCh6H" opacity="1" fill-opacity="0" stroke="#000000" stroke-width="1" stroke-opacity="0"></use></g></g><g><use xlink:href="#b9XZGieVR" opacity="1" fill="#000000" fill-opacity="0"></use><g><use xlink:href="#b9XZGieVR" opacity="1" fill-opacity="0" stroke="#ffffff" stroke-width="1" stroke-opacity="1"></use></g></g><g><use xlink:href="#e1pq1AtKJy" opacity="1" fill="#316192" fill-opacity="1"></use><g><use xlink:href="#e1pq1AtKJy" opacity="1" fill-opacity="0" stroke="#000000" stroke-width="1" stroke-opacity="0"></use></g></g><g><use xlink:href="#c2SAbsAOxO" opacity="1" fill="#000000" fill-opacity="0"></use><g><use xlink:href="#c2SAbsAOxO" opacity="1" fill-opacity="0" stroke="#ffffff" stroke-width="1" stroke-opacity="1"></use></g></g><g><use xlink:href="#elgcsmLpC" opacity="1" fill="#316192" fill-opacity="1"></use><g><use xlink:href="#elgcsmLpC" opacity="1" fill-opacity="0" stroke="#000000" stroke-width="1" stroke-opacity="0"></use></g></g><g><use xlink:href="#b3LswGJ1nk" opacity="1" fill="#000000" fill-opacity="0"></use><g><use xlink:href="#b3LswGJ1nk" opacity="1" fill-opacity="0" stroke="#ffffff" stroke-width="1" stroke-opacity="1"></use></g></g><g><use xlink:href="#b1GklKMKd6" opacity="1" fill="#ffffff" fill-opacity="1"></use><g><use xlink:href="#b1GklKMKd6" opacity="1" fill-opacity="0" stroke="#000000" stroke-width="1" stroke-opacity="0"></use></g></g><g><use xlink:href="#bVT4E0iaV" opacity="1" fill="#000000" fill-opacity="0"></use><g><use xlink:href="#bVT4E0iaV" opacity="1" fill-opacity="0" stroke="#ffffff" stroke-width="0.33" stroke-opacity="1"></use></g></g><g><use xlink:href="#h47DXKECv" opacity="1" fill="#ffffff" fill-opacity="1"></use><g><use xlink:href="#h47DXKECv" opacity="1" fill-opacity="0" stroke="#000000" stroke-width="1" stroke-opacity="0"></use></g></g><g><use xlink:href="#a9raClceS" opacity="1" fill="#000000" fill-opacity="0"></use><g><use xlink:href="#a9raClceS" opacity="1" fill-opacity="0" stroke="#ffffff" stroke-width="0.17" stroke-opacity="1"></use></g></g><g><use xlink:href="#eyEoYIgR" opacity="1" fill="#316192" fill-opacity="1"></use><g><use xlink:href="#eyEoYIgR" opacity="1" fill-opacity="0" stroke="#000000" stroke-width="1" stroke-opacity="0"></use></g></g><g><use xlink:href="#b1MtSavC7Q" opacity="1" fill="#000000" fill-opacity="0"></use><g><use xlink:href="#b1MtSavC7Q" opacity="1" fill-opacity="0" stroke="#ffffff" stroke-width="1" stroke-opacity="1"></use></g></g></g></g></svg>